<?xml version="1.0" encoding="UTF-8"?>
<svg width="700pt" height="700pt" version="1.1" viewBox="0 0 700 600" xmlns="http://www.w3.org/2000/svg" xmlns:xlink="http://www.w3.org/1999/xlink">
 <defs>
  <!-- <symbol id="l" overflow="visible">
   <path d="m3.6562-0.21875c-0.1875 0.09375-0.38672 0.16797-0.59375 0.21875-0.19922 0.050781-0.40625 0.078125-0.625 0.078125-0.66797 0-1.1992-0.17969-1.5938-0.54688-0.38672-0.375-0.57812-0.87891-0.57812-1.5156 0-0.64453 0.19141-1.1484 0.57812-1.5156 0.39453-0.375 0.92578-0.5625 1.5938-0.5625 0.21875 0 0.42578 0.027344 0.625 0.078125 0.20703 0.054687 0.40625 0.125 0.59375 0.21875v0.82812c-0.1875-0.125-0.375-0.21875-0.5625-0.28125-0.17969-0.0625-0.37109-0.09375-0.57812-0.09375-0.36719 0-0.65625 0.12109-0.875 0.35938-0.21094 0.23047-0.3125 0.55469-0.3125 0.96875 0 0.40625 0.10156 0.73047 0.3125 0.96875 0.21875 0.23047 0.50781 0.34375 0.875 0.34375 0.20703 0 0.39844-0.023437 0.57812-0.078125 0.1875-0.0625 0.375-0.16016 0.5625-0.29688z"/>
  </symbol>
  <symbol id="c" overflow="visible">
   <path d="m2.6875-2.1719c-0.085938-0.039063-0.16797-0.070313-0.25-0.09375-0.085938-0.019531-0.16797-0.03125-0.25-0.03125-0.25 0-0.44531 0.085937-0.57812 0.25-0.125 0.15625-0.1875 0.38281-0.1875 0.67188v1.375h-0.96875v-2.9844h0.96875v0.48438c0.11328-0.19531 0.25-0.33594 0.40625-0.42188 0.16406-0.09375 0.35938-0.14062 0.57812-0.14062h0.10938c0.039063 0 0.09375 0.007812 0.15625 0.015625z"/>
  </symbol>
  <symbol id="b" overflow="visible">
   <path d="m3.4375-1.5v0.26562h-2.2344c0.03125 0.23047 0.11328 0.40234 0.25 0.51562 0.13281 0.10547 0.32812 0.15625 0.57812 0.15625 0.20703 0 0.41406-0.023438 0.625-0.078125 0.20703-0.0625 0.42188-0.15625 0.64062-0.28125v0.73438c-0.21875 0.09375-0.44531 0.16406-0.67188 0.20312-0.23047 0.039062-0.45312 0.0625-0.67188 0.0625-0.54297 0-0.96484-0.13281-1.2656-0.40625-0.30469-0.28125-0.45312-0.67188-0.45312-1.1719 0-0.47656 0.14453-0.85938 0.4375-1.1406 0.30078-0.28125 0.70703-0.42188 1.2188-0.42188 0.46875 0 0.84375 0.14062 1.125 0.42188s0.42188 0.66406 0.42188 1.1406zm-0.96875-0.32812c0-0.17578-0.058594-0.31641-0.17188-0.42188-0.10547-0.11328-0.24219-0.17188-0.40625-0.17188-0.1875 0-0.33984 0.054687-0.45312 0.15625-0.11719 0.10547-0.1875 0.25-0.21875 0.4375z"/>
  </symbol>
  <symbol id="j" overflow="visible">
   <path d="m1.7969-1.3438c-0.19922 0-0.35156 0.039062-0.45312 0.10938-0.09375 0.0625-0.14062 0.16406-0.14062 0.29688 0 0.11719 0.035156 0.21094 0.10938 0.28125 0.082031 0.0625 0.19531 0.09375 0.34375 0.09375 0.17578 0 0.32812-0.0625 0.45312-0.1875s0.1875-0.28516 0.1875-0.48438v-0.10938zm1.4688-0.35938v1.7031h-0.96875v-0.4375c-0.125 0.17969-0.27344 0.30859-0.4375 0.39062-0.15625 0.082031-0.35156 0.125-0.57812 0.125-0.3125 0-0.57031-0.085938-0.76562-0.26562-0.1875-0.1875-0.28125-0.42188-0.28125-0.70312 0-0.35156 0.11719-0.61328 0.35938-0.78125 0.23828-0.16406 0.61719-0.25 1.1406-0.25h0.5625v-0.0625c0-0.15625-0.0625-0.26562-0.1875-0.32812-0.11719-0.070312-0.29688-0.10938-0.54688-0.10938-0.21094 0-0.40234 0.023437-0.57812 0.0625-0.17969 0.042969-0.33984 0.10156-0.48438 0.17188v-0.71875c0.19531-0.050781 0.39844-0.085938 0.60938-0.10938 0.20703-0.03125 0.41406-0.046875 0.625-0.046875 0.53906 0 0.92969 0.10938 1.1719 0.32812 0.23828 0.21094 0.35938 0.55469 0.35938 1.0312z"/>
  </symbol>
  <symbol id="a" overflow="visible">
   <path d="m1.5-3.8438v0.85938h0.98438v0.67188h-0.98438v1.2812c0 0.13672 0.023438 0.23047 0.078125 0.28125 0.0625 0.042969 0.17578 0.0625 0.34375 0.0625h0.48438v0.6875h-0.8125c-0.38672 0-0.65625-0.078125-0.8125-0.23438s-0.23438-0.42188-0.23438-0.79688v-1.2812h-0.46875v-0.67188h0.46875v-0.85938z"/>
  </symbol>
  <symbol id="i" overflow="visible">
   <path d="m2.5-2.5469v-1.6094h0.95312v4.1562h-0.95312v-0.4375c-0.13672 0.17969-0.28125 0.30859-0.4375 0.39062-0.15625 0.082031-0.33984 0.125-0.54688 0.125-0.375 0-0.68359-0.14453-0.92188-0.4375-0.23047-0.28906-0.34375-0.67188-0.34375-1.1406 0-0.45703 0.11328-0.83203 0.34375-1.125 0.23828-0.28906 0.54688-0.4375 0.92188-0.4375 0.19531 0 0.375 0.042969 0.53125 0.125 0.16406 0.085938 0.31641 0.21484 0.45312 0.39062zm-0.64062 1.9375c0.20703 0 0.36328-0.070313 0.46875-0.21875 0.11328-0.15625 0.17188-0.37891 0.17188-0.67188 0-0.28125-0.058594-0.49219-0.17188-0.64062-0.10547-0.15625-0.26172-0.23438-0.46875-0.23438-0.19922 0-0.35547 0.078125-0.46875 0.23438-0.10547 0.14844-0.15625 0.35938-0.15625 0.64062 0 0.29297 0.050781 0.51562 0.15625 0.67188 0.11328 0.14844 0.26953 0.21875 0.46875 0.21875z"/>
  </symbol>
  <symbol id="n" overflow="visible">
   <path d="m2.0469-0.60938c0.20703 0 0.36328-0.070313 0.46875-0.21875 0.11328-0.15625 0.17188-0.37891 0.17188-0.67188 0-0.28125-0.058594-0.49219-0.17188-0.64062-0.10547-0.15625-0.26172-0.23438-0.46875-0.23438-0.19922 0-0.35547 0.078125-0.46875 0.23438-0.10547 0.14844-0.15625 0.35938-0.15625 0.64062 0 0.29297 0.050781 0.51562 0.15625 0.67188 0.11328 0.14844 0.26953 0.21875 0.46875 0.21875zm-0.625-1.9375c0.125-0.17578 0.26562-0.30469 0.42188-0.39062 0.16406-0.082031 0.35156-0.125 0.5625-0.125 0.36328 0 0.66406 0.14844 0.90625 0.4375 0.23828 0.29297 0.35938 0.66797 0.35938 1.125 0 0.46875-0.12109 0.85156-0.35938 1.1406-0.24219 0.29297-0.54297 0.4375-0.90625 0.4375-0.21094 0-0.39844-0.042969-0.5625-0.125-0.15625-0.082031-0.29688-0.21094-0.42188-0.39062v0.4375h-0.96875v-4.1562h0.96875z"/>
  </symbol>
  <symbol id="m" overflow="visible">
   <path d="m0.0625-2.9844h0.95312l0.8125 2.0156 0.6875-2.0156h0.95312l-1.2656 3.2656c-0.125 0.33203-0.27344 0.56641-0.4375 0.70312-0.16797 0.13281-0.39062 0.20312-0.67188 0.20312h-0.54688v-0.64062h0.29688c0.16406 0 0.28516-0.027344 0.35938-0.078125 0.070313-0.054688 0.12891-0.14062 0.17188-0.26562l0.03125-0.09375z"/>
  </symbol>
  <symbol id="h" overflow="visible">
   <path d="m3.4688-1.8281v1.8281h-0.96875v-1.3906c0-0.25781-0.007812-0.4375-0.015625-0.53125-0.011719-0.10156-0.03125-0.17578-0.0625-0.21875-0.03125-0.0625-0.085937-0.10938-0.15625-0.14062-0.0625-0.039062-0.13281-0.0625-0.20312-0.0625-0.21094 0-0.37109 0.078125-0.48438 0.23438-0.10547 0.15625-0.15625 0.37109-0.15625 0.64062v1.4688h-0.96875v-4.1562h0.96875v1.6094c0.13281-0.17578 0.28516-0.30469 0.45312-0.39062 0.16406-0.082031 0.34375-0.125 0.53125-0.125 0.34375 0 0.60156 0.10938 0.78125 0.32812 0.1875 0.21094 0.28125 0.51172 0.28125 0.90625z"/>
  </symbol>
  <symbol id="g" overflow="visible">
   <path d="m3.4688-1.8281v1.8281h-0.96875v-1.3906c0-0.25781-0.007812-0.4375-0.015625-0.53125-0.011719-0.10156-0.03125-0.17578-0.0625-0.21875-0.03125-0.0625-0.085937-0.10938-0.15625-0.14062-0.0625-0.039062-0.13281-0.0625-0.20312-0.0625-0.21094 0-0.37109 0.078125-0.48438 0.23438-0.10547 0.15625-0.15625 0.37109-0.15625 0.64062v1.4688h-0.96875v-2.9844h0.96875v0.4375c0.13281-0.17578 0.28516-0.30469 0.45312-0.39062 0.16406-0.082031 0.34375-0.125 0.53125-0.125 0.34375 0 0.60156 0.10938 0.78125 0.32812 0.1875 0.21094 0.28125 0.51172 0.28125 0.90625z"/>
  </symbol>
  <symbol id="f" overflow="visible">
   <path d="m0.42188-1.1719v-1.8125h0.96875v0.29688 0.60938 0.48438c0 0.24219 0.003906 0.41797 0.015625 0.53125 0.007812 0.10547 0.03125 0.17969 0.0625 0.21875 0.039062 0.0625 0.09375 0.11719 0.15625 0.15625 0.0625 0.03125 0.13281 0.046875 0.21875 0.046875 0.19531 0 0.35156-0.078125 0.46875-0.23438 0.11328-0.15625 0.17188-0.36719 0.17188-0.64062v-1.4688h0.95312v2.9844h-0.95312v-0.4375c-0.14844 0.17969-0.30469 0.30859-0.46875 0.39062-0.15625 0.082031-0.33594 0.125-0.53125 0.125-0.34375 0-0.60938-0.10156-0.79688-0.3125-0.17969-0.21875-0.26562-0.53125-0.26562-0.9375z"/>
  </symbol>
  <symbol id="k" overflow="visible">
   <path d="m0.45312-2.9844h0.96875v2.9844h-0.96875zm0-1.1719h0.96875v0.78125h-0.96875z"/>
  </symbol>
  <symbol id="e" overflow="visible">
   <path d="m2.7969-2.8906v0.71875c-0.21094-0.082031-0.40625-0.14453-0.59375-0.1875-0.1875-0.039063-0.37109-0.0625-0.54688-0.0625-0.17969 0-0.3125 0.023437-0.40625 0.0625-0.085938 0.042969-0.125 0.10938-0.125 0.20312 0 0.085938 0.03125 0.14844 0.09375 0.1875 0.070312 0.042969 0.19531 0.074219 0.375 0.09375l0.15625 0.015625c0.48828 0.0625 0.81641 0.16797 0.98438 0.3125 0.17578 0.13672 0.26562 0.35938 0.26562 0.67188s-0.12109 0.55469-0.35938 0.71875c-0.23047 0.15625-0.57812 0.23438-1.0469 0.23438-0.19922 0-0.40625-0.015625-0.625-0.046875-0.21094-0.03125-0.42188-0.078125-0.64062-0.14062v-0.71875c0.1875 0.085937 0.37891 0.15234 0.57812 0.20312 0.20703 0.042969 0.41406 0.0625 0.625 0.0625 0.1875 0 0.32812-0.023438 0.42188-0.078125 0.09375-0.050781 0.14062-0.125 0.14062-0.21875s-0.039062-0.16016-0.10938-0.20312c-0.0625-0.039062-0.1875-0.070312-0.375-0.09375l-0.17188-0.015625c-0.42969-0.050781-0.73047-0.14844-0.90625-0.29688-0.16797-0.14453-0.25-0.36328-0.25-0.65625 0-0.32031 0.10938-0.55469 0.32812-0.70312 0.21875-0.15625 0.55078-0.23438 1-0.23438 0.17578 0 0.35938 0.015625 0.54688 0.046875 0.19531 0.023437 0.41016 0.0625 0.64062 0.125z"/>
  </symbol>
  <symbol id="u" overflow="visible">
   <path d="m0.5-3.9844h1.0312v3.9844h-1.0312z"/>
  </symbol>
  <symbol id="t" overflow="visible">
   <path d="m2.4219-4.1562v0.625h-0.51562c-0.13672 0-0.23438 0.027344-0.29688 0.078125-0.054687 0.054687-0.078125 0.13672-0.078125 0.25v0.21875h0.82812v0.67188h-0.82812v2.3125h-0.95312v-2.3125h-0.46875v-0.67188h0.46875v-0.21875c0-0.32031 0.085937-0.5625 0.26562-0.71875 0.1875-0.15625 0.47266-0.23438 0.85938-0.23438z"/>
  </symbol>
  <symbol id="d" overflow="visible">
   <path d="m1.875-2.375c-0.21094 0-0.37109 0.078125-0.48438 0.23438-0.10547 0.14844-0.15625 0.35938-0.15625 0.64062 0 0.29297 0.050781 0.51562 0.15625 0.67188 0.11328 0.14844 0.27344 0.21875 0.48438 0.21875 0.20703 0 0.36719-0.070313 0.48438-0.21875 0.11328-0.15625 0.17188-0.37891 0.17188-0.67188 0-0.28125-0.058594-0.49219-0.17188-0.64062-0.11719-0.15625-0.27734-0.23438-0.48438-0.23438zm0-0.6875c0.51953 0 0.92188 0.14062 1.2031 0.42188 0.28906 0.27344 0.4375 0.65234 0.4375 1.1406 0 0.5-0.14844 0.89062-0.4375 1.1719-0.28125 0.27344-0.68359 0.40625-1.2031 0.40625-0.51172 0-0.91406-0.13281-1.2031-0.40625-0.29297-0.28125-0.4375-0.67188-0.4375-1.1719 0-0.48828 0.14453-0.86719 0.4375-1.1406 0.28906-0.28125 0.69141-0.42188 1.2031-0.42188z"/>
  </symbol>
  <symbol id="s" overflow="visible">
   <path d="m3.2344-2.5c0.11328-0.17578 0.25391-0.3125 0.42188-0.40625 0.16406-0.10156 0.35156-0.15625 0.5625-0.15625 0.33203 0 0.58594 0.10938 0.76562 0.32812 0.1875 0.21094 0.28125 0.51172 0.28125 0.90625v1.8281h-0.96875v-1.5625c0.007813-0.019531 0.015625-0.039062 0.015625-0.0625v-0.10938c0-0.21875-0.03125-0.375-0.09375-0.46875s-0.16406-0.14062-0.29688-0.14062c-0.1875 0-0.33594 0.078125-0.4375 0.23438-0.09375 0.14844-0.14062 0.35938-0.14062 0.64062v1.4688h-0.96875v-1.5625c0-0.33203-0.03125-0.54688-0.09375-0.64062-0.054688-0.09375-0.15234-0.14062-0.29688-0.14062-0.17969 0-0.32031 0.078125-0.42188 0.23438-0.09375 0.14844-0.14062 0.35938-0.14062 0.64062v1.4688h-0.96875v-2.9844h0.96875v0.4375c0.11328-0.17578 0.24219-0.30469 0.39062-0.39062 0.15625-0.082031 0.32812-0.125 0.51562-0.125 0.20703 0 0.39062 0.054688 0.54688 0.15625 0.15625 0.09375 0.27344 0.23047 0.35938 0.40625z"/>
  </symbol>
  <symbol id="r" overflow="visible">
   <path d="m0.5-3.9844h1.1562l1.4375 2.7344v-2.7344h0.98438v3.9844h-1.1562l-1.4375-2.7344v2.7344h-0.98438z"/>
  </symbol>
  <symbol id="q" overflow="visible">
   <path d="m0.5-3.9844h1.7031c0.50781 0 0.89844 0.11719 1.1719 0.34375 0.26953 0.21875 0.40625 0.53906 0.40625 0.95312 0 0.41797-0.13672 0.74219-0.40625 0.96875-0.27344 0.21875-0.66406 0.32812-1.1719 0.32812h-0.67188v1.3906h-1.0312zm1.0312 0.75v1.1094h0.5625c0.19531 0 0.34766-0.046875 0.45312-0.14062 0.11328-0.10156 0.17188-0.24219 0.17188-0.42188 0-0.17578-0.058594-0.3125-0.17188-0.40625-0.10547-0.09375-0.25781-0.14062-0.45312-0.14062z"/>
  </symbol>
  <symbol id="p" overflow="visible">
   <path d="m0.45312-2.9844h0.96875v2.9375c0 0.39453-0.10156 0.69531-0.29688 0.90625-0.1875 0.21875-0.46484 0.32812-0.82812 0.32812h-0.48438v-0.64062h0.17188c0.17578 0 0.29688-0.042969 0.35938-0.125 0.070312-0.074219 0.10938-0.23047 0.10938-0.46875zm0-1.1719h0.96875v0.78125h-0.96875z"/>
  </symbol>
  <symbol id="o" overflow="visible">
   <path d="m2.875-2.8906v0.76562c-0.125-0.082031-0.25781-0.14453-0.39062-0.1875-0.13672-0.039062-0.27344-0.0625-0.40625-0.0625-0.27344 0-0.48047 0.078125-0.625 0.23438-0.14844 0.15625-0.21875 0.37109-0.21875 0.64062 0 0.28125 0.070313 0.5 0.21875 0.65625 0.14453 0.15625 0.35156 0.23438 0.625 0.23438 0.14453 0 0.28516-0.019531 0.42188-0.0625 0.13281-0.039063 0.25781-0.10938 0.375-0.20312v0.78125c-0.14844 0.0625-0.29688 0.10156-0.45312 0.125-0.15625 0.03125-0.3125 0.046875-0.46875 0.046875-0.54297 0-0.96484-0.13281-1.2656-0.40625-0.30469-0.28125-0.45312-0.67188-0.45312-1.1719 0-0.48828 0.14844-0.86719 0.45312-1.1406 0.30078-0.28125 0.72266-0.42188 1.2656-0.42188 0.15625 0 0.3125 0.015625 0.46875 0.046875 0.15625 0.023437 0.30469 0.0625 0.45312 0.125z"/>
  </symbol> -->
 </defs>
 <g>
  <path d="m315.85 187.36c-24.898 0-23.586 16.492-23.586 16.492 0.78516 8.7812 5.1094 12.383 9.2383 13.793 3.2344 1.1055 6.8047 0.99609 10.02-0.16016 4.4375-1.5977 8.5312-1.918 11.332-1.8828 3.0312 0.042969 6.0117 1.5156 7.3984 4.2148 3.4883 6.7969-4.6992 14.438-4.6992 14.438-4.1406-3.4844-7.7812-3.8477-10.625-3.0781-2.9648 0.80078-3.4922 4.7773-0.90625 6.4375 4.7188 3.0273 7.5312 8.5703 8.9766 12.305 0.98047 2.5352 4.418 3.0938 6.0859 0.94922 2.9727-3.8164 1.9688-9.7969 1.9688-9.7969 28.828-21.758 9.6953-53.711-15.203-53.711zm-8.7969 17.504c-1.7578 0-3.1836-1.4258-3.1836-3.1836 0-1.7578 1.4258-3.1836 3.1836-3.1836 1.7578 0 3.1836 1.4258 3.1836 3.1836 0 1.7578-1.4258 3.1836-3.1836 3.1836z"/>
  <path d="m340.36 376.05c-4.0078-2.4023-7.957-4.875-11.77-7.5781-13.973-9.9102-39.742-30.668-46.18-52.941-3.7109-12.844 1.6992-24.176 9.9883-33.355 3.5781-3.9648 0.84375-10.277-4.5-10.277h-134.09c-11.16 0-19.758 10.031-17.871 21.031 20.266 118.07 98.375 159.04 156.13 176.14 29.355 8.6914 61.426-4.9453 73.426-33.109 14.145-33.219-15.824-54.32-25.141-59.906z"/>
  <path d="m555.12 271.9h-201.36c-3.7031 0-7.2578 1.6758-9.5039 4.6172-24.625 32.254 9.0078 49.828 34.973 58.074 10.531 3.3438 21.422 5.5234 32.398 6.7695 81.195 9.2305 87.328 61.324 78.578 102.72-0.92578 4.3789 4.2578 7.3984 7.6953 4.5312 48.102-40.117 74.973-112.67 78.207-153.8 0.96484-12.324-8.6172-22.914-20.988-22.914z"/>
  <path d="m454.06 428.13-1.8555-1.3906c-5.6211-4.2148-11.566-2.6211-14.754-1.1953-1.4102 0.62891-3.0703 0.21094-3.9531-1.0586l-0.046875-0.070312c-1.1445-1.6406-0.50781-3.9141 1.3203-4.7266 4.582-2.0352 11.48-3.3555 18.145-0.042968 0.84375 0.42187 1.8047 0.49219 2.6719 0.11328 3.8633-1.6914 10.664-3.5156 17.953-0.11328 1.793 0.83594 2.4297 3.0742 1.3125 4.7031l-0.046874 0.070313c-0.85547 1.25-2.4961 1.7578-3.8672 1.1172-7.75-3.625-14.895 1.2148-14.973 1.2695z"/>
  <path d="m397.24 395.37-1.6953-1.2695c-5.1367-3.8516-10.57-2.3945-13.484-1.0938-1.2891 0.57812-2.8047 0.19141-3.6133-0.96875l-0.042969-0.0625c-1.0469-1.5-0.46484-3.5781 1.207-4.3203 4.1875-1.8594 10.496-3.0664 16.582-0.039063 0.77344 0.38672 1.6523 0.45312 2.4414 0.10547 3.5312-1.543 9.7461-3.2148 16.41-0.10547 1.6367 0.76172 2.2227 2.8086 1.2031 4.2969l-0.042969 0.066406c-0.78125 1.1406-2.2812 1.6094-3.5352 1.0234-7.0859-3.3125-13.613 1.1094-13.688 1.1602z"/>
  <path d="m389.45 356.18-1.4414-1.082c-4.3711-3.2773-9-2.0352-11.477-0.92969-1.0977 0.48828-2.3867 0.16016-3.0742-0.82422l-0.039063-0.054688c-0.89062-1.2773-0.39453-3.043 1.0273-3.6758 3.5625-1.582 8.9297-2.6094 14.113-0.03125 0.65625 0.32812 1.4062 0.38281 2.0781 0.089844 3.0039-1.3164 8.293-2.7344 13.965-0.089844 1.3945 0.64844 1.8906 2.3906 1.0234 3.6562l-0.039062 0.054687c-0.66406 0.97266-1.9414 1.3672-3.0078 0.87109-6.0273-2.8203-11.586 0.94531-11.645 0.98438z"/>
  <path d="m330.7 346.45-1.0352-0.77344c-3.1328-2.3516-6.4492-1.4609-8.2305-0.66797-0.78906 0.35156-1.7109 0.11719-2.2031-0.58984l-0.023438-0.039063c-0.64062-0.91797-0.28516-2.1836 0.73438-2.6367 2.5547-1.1328 6.4023-1.8711 10.121-0.023438 0.47266 0.23438 1.0078 0.27734 1.4922 0.066406 2.1562-0.94141 5.9492-1.9609 10.012-0.066406 1 0.46875 1.3555 1.7109 0.73438 2.6211l-0.027343 0.039062c-0.47656 0.69531-1.3906 0.98047-2.1562 0.62109-4.3242-2.0234-8.3086 0.67969-8.3516 0.70703z"/>
  <path d="m326.25 315.12-0.90234-0.67578c-2.7305-2.0469-5.6211-1.2734-7.1719-0.58203-0.6875 0.30469-1.4922 0.10156-1.9219-0.51563l-0.023438-0.03125c-0.55469-0.79687-0.25-1.9023 0.64063-2.2969 2.2266-0.98828 5.582-1.6289 8.8203-0.019532 0.41016 0.20703 0.87891 0.24219 1.3008 0.054688 1.8789-0.82031 5.1836-1.7109 8.7305-0.054688 0.87109 0.40625 1.1797 1.4922 0.64062 2.2852l-0.023437 0.035157c-0.41797 0.60938-1.2148 0.85547-1.8828 0.54297-3.7656-1.7617-7.2422 0.58984-7.2773 0.61719z"/>
  <path d="m303.06 294.21-0.54688-0.41016c-1.6602-1.2461-3.418-0.77344-4.3594-0.35156-0.41797 0.1875-0.90625 0.0625-1.168-0.3125l-0.015625-0.019531c-0.33984-0.48438-0.15234-1.1562 0.39062-1.3984 1.3516-0.60156 3.3906-0.99219 5.3594-0.011719 0.25 0.125 0.53516 0.14453 0.78906 0.035156 1.1406-0.5 3.1523-1.0391 5.3047-0.035156 0.53125 0.24609 0.71875 0.90625 0.38672 1.3906l-0.015625 0.023438c-0.25391 0.36719-0.73828 0.51953-1.1445 0.33203-2.2891-1.0703-4.3984 0.35938-4.4219 0.375z"/>
  <path d="m245.98 181.71c-0.10156-0.36328-0.20312-0.72656-0.36719-1.0703l-9.3008-19.648-0.003906-0.007813-35.219-74.406c-1.6562-3.4961-6.6289-3.4961-8.2812 0l-66.336 140.15c-1.4375 3.0391 0.77734 6.543 4.1406 6.543h62.449l-0.003906-33.035-14.328-14.324c-0.87109-0.875-0.87109-2.293 0-3.1641 0.875-0.875 2.293-0.875 3.1641 0l11.16 11.16 0.003907-30.75-10.391-10.391c-0.76953-0.76953-0.76953-2.0195 0-2.7891l0.375-0.375c0.76953-0.76953 2.0195-0.76953 2.7891 0l7.2227 7.2266v-23.555c0-1.6016 1.0977-3.0898 2.6758-3.3477 2.0195-0.32812 3.7617 1.2188 3.7617 3.1758v23.535l6.6172-6.6172c0.76172-0.76172 1.9961-0.76172 2.7578 0l0.40625 0.40625c0.76172 0.76172 0.76172 1.9961 0 2.7578l-9.7812 9.7812v32.281l12.5-12.5c0.875-0.875 2.293-0.875 3.1641 0 0.875 0.875 0.875 2.293 0 3.1641l-15.664 15.664v31.695h64.293c2.9102 0 4.8359-3.0234 3.6055-5.6602z"/>
  <path d="m199.86 271.9h-6.793v-32.344c0-1.875 1.5195-3.3945 3.3945-3.3945s3.3945 1.5195 3.3945 3.3945z"/>
  <path d="m513.27 202.28c-0.10156-0.36328-0.20703-0.72656-0.36719-1.0703l-9.3008-19.648-0.003906-0.007813-35.219-74.406c-1.6562-3.4961-6.6289-3.4961-8.2812 0l-66.336 140.15c-1.4375 3.0391 0.77734 6.5391 4.1406 6.5391h62.449v-33.035l-14.328-14.324c-0.875-0.875-0.875-2.293 0-3.1641 0.875-0.875 2.293-0.875 3.1641 0l11.16 11.16v-30.75l-10.391-10.391c-0.76953-0.76953-0.76953-2.0195 0-2.7891l0.37891-0.37891c0.76953-0.76953 2.0195-0.76953 2.7891 0l7.2227 7.2266v-23.555c0-1.6016 1.0977-3.0898 2.6758-3.3477 2.0195-0.32812 3.7617 1.2188 3.7617 3.1758v23.535l6.6172-6.6172c0.76172-0.76172 1.9961-0.76172 2.7578 0l0.40625 0.40625c0.76172 0.76172 0.76172 1.9961 0 2.7578l-9.7812 9.7812v32.281l12.5-12.5c0.875-0.875 2.293-0.875 3.1641 0 0.875 0.875 0.875 2.293 0 3.1641l-15.664 15.668v31.695h64.293c2.9102 0 4.8359-3.0234 3.6055-5.6602z"/>
  <path d="m467.15 292.46h-6.793v-32.344c0-1.875 1.5195-3.3945 3.3945-3.3945s3.3945 1.5195 3.3945 3.3945z"/>
  <use x="70" y="576.40625" xlink:href="#l"/>
  <use x="74.011719" y="576.40625" xlink:href="#c"/>
  <use x="76.710938" y="576.40625" xlink:href="#b"/>
  <use x="80.417969" y="576.40625" xlink:href="#j"/>
  <use x="84.109375" y="576.40625" xlink:href="#a"/>
  <use x="86.722656" y="576.40625" xlink:href="#b"/>
  <use x="90.433594" y="576.40625" xlink:href="#i"/>
  <use x="96.25" y="576.40625" xlink:href="#n"/>
  <use x="100.167969" y="576.40625" xlink:href="#m"/>
  <use x="105.636719" y="576.40625" xlink:href="#l"/>
  <use x="109.648438" y="576.40625" xlink:href="#h"/>
  <use x="113.542969" y="576.40625" xlink:href="#j"/>
  <use x="117.230469" y="576.40625" xlink:href="#g"/>
  <use x="121.125" y="576.40625" xlink:href="#f"/>
  <use x="125.019531" y="576.40625" xlink:href="#a"/>
  <use x="129.535156" y="576.40625" xlink:href="#k"/>
  <use x="131.410156" y="576.40625" xlink:href="#e"/>
  <use x="136.570312" y="576.40625" xlink:href="#u"/>
  <use x="138.605469" y="576.40625" xlink:href="#g"/>
  <use x="142.5" y="576.40625" xlink:href="#i"/>
  <use x="146.414062" y="576.40625" xlink:href="#f"/>
  <use x="150.304688" y="576.40625" xlink:href="#e"/>
  <use x="153.5625" y="576.40625" xlink:href="#a"/>
  <use x="156.175781" y="576.40625" xlink:href="#c"/>
  <use x="158.871094" y="576.40625" xlink:href="#k"/>
  <use x="160.746094" y="576.40625" xlink:href="#b"/>
  <use x="164.457031" y="576.40625" xlink:href="#e"/>
  <use x="70" y="581.875" xlink:href="#t"/>
  <use x="72.378906" y="581.875" xlink:href="#c"/>
  <use x="75.078125" y="581.875" xlink:href="#d"/>
  <use x="78.832031" y="581.875" xlink:href="#s"/>
  <use x="86.4375" y="581.875" xlink:href="#a"/>
  <use x="89.050781" y="581.875" xlink:href="#h"/>
  <use x="92.941406" y="581.875" xlink:href="#b"/>
  <use x="98.554688" y="581.875" xlink:href="#r"/>
  <use x="103.132812" y="581.875" xlink:href="#d"/>
  <use x="106.890625" y="581.875" xlink:href="#f"/>
  <use x="110.785156" y="581.875" xlink:href="#g"/>
  <use x="116.582031" y="581.875" xlink:href="#q"/>
  <use x="120.589844" y="581.875" xlink:href="#c"/>
  <use x="123.285156" y="581.875" xlink:href="#d"/>
  <use x="127.042969" y="581.875" xlink:href="#p"/>
  <use x="128.917969" y="581.875" xlink:href="#b"/>
  <use x="132.625" y="581.875" xlink:href="#o"/>
  <use x="135.867188" y="581.875" xlink:href="#a"/>
 </g>
</svg>
