<?xml version="1.0" encoding="UTF-8"?>
<svg id="Layer_2" data-name="Layer 2" xmlns="http://www.w3.org/2000/svg" viewBox="0 0 521.06 171.41">
  <defs>
    <style>
      .cls-1 {
        letter-spacing: .05em;
      }

      .cls-2 {
        font-size: 84.95px;
      }

      .cls-2, .cls-3 {
        fill: #f1f2f2;
      }

      .cls-2, .cls-4 {
        font-family: MyriadPro-Regular, 'Myriad Pro';
      }

      .cls-5 {
        letter-spacing: 0em;
      }

      .cls-6 {
        letter-spacing: .03em;
      }

      .cls-7 {
        letter-spacing: .01em;
      }

      .cls-4 {
        fill: #fff;
        font-size: 73.98px;
      }

      .cls-8 {
        letter-spacing: 0em;
      }
    </style>
  </defs>
  <g id="Layer_1-2" data-name="Layer 1">
    <g>
      <path class="cls-3" d="M84.47,45.71c-11.08,0-10.5,7.29-10.5,7.29,.35,3.88,2.27,5.47,4.11,6.1,1.44,.49,3.03,.44,4.46-.07,1.97-.71,3.8-.85,5.04-.83,1.35,.02,2.68,.67,3.29,1.86,1.55,3-2.09,6.38-2.09,6.38-1.84-1.54-3.46-1.7-4.73-1.36-1.32,.35-1.55,2.11-.4,2.85,2.1,1.34,3.35,3.79,3.99,5.44,.44,1.12,1.97,1.37,2.71,.42,1.32-1.69,.88-4.33,.88-4.33,12.83-9.62,4.31-23.75-6.77-23.75h0Zm-3.91,7.74c-.78,0-1.42-.63-1.42-1.41s.63-1.41,1.42-1.41,1.42,.63,1.42,1.41-.63,1.41-1.42,1.41Z"/>
      <path class="cls-3" d="M95.38,129.13c-1.78-1.06-3.54-2.16-5.24-3.35-6.22-4.38-17.69-13.56-20.55-23.4-1.65-5.68,.76-10.69,4.44-14.75,1.59-1.75,.38-4.54-2-4.54H12.36c-4.97,0-8.79,4.43-7.95,9.3,9.02,52.2,43.78,70.31,69.48,77.87,13.06,3.84,27.33-2.19,32.67-14.64,6.29-14.69-7.04-24.01-11.19-26.48h0Z"/>
      <path class="cls-3" d="M190.95,83.09H101.34c-1.65,0-3.23,.74-4.23,2.04-10.96,14.26,4.01,22.03,15.56,25.67,4.69,1.48,9.53,2.44,14.42,2.99,36.13,4.08,38.86,27.11,34.97,45.41-.41,1.94,1.89,3.27,3.42,2,21.41-17.74,33.36-49.81,34.8-67.99,.43-5.45-3.83-10.13-9.34-10.13h0Z"/>
      <path class="cls-3" d="M145.98,152.16l-.83-.61c-2.5-1.86-5.15-1.16-6.57-.53-.63,.28-1.37,.09-1.76-.47l-.02-.03c-.51-.73-.23-1.73,.59-2.09,2.04-.9,5.11-1.48,8.07-.02,.38,.19,.8,.22,1.19,.05,1.72-.75,4.75-1.55,7.99-.05,.8,.37,1.08,1.36,.58,2.08l-.02,.03c-.38,.55-1.11,.78-1.72,.49-3.45-1.6-6.63,.54-6.66,.56l-.85,.59Z"/>
      <path class="cls-3" d="M120.69,137.67l-.75-.56c-2.29-1.7-4.7-1.06-6-.48-.57,.26-1.25,.08-1.61-.43l-.02-.03c-.47-.66-.21-1.58,.54-1.91,1.86-.82,4.67-1.36,7.38-.02,.34,.17,.74,.2,1.09,.05,1.57-.68,4.34-1.42,7.3-.05,.73,.34,.99,1.24,.54,1.9l-.02,.03c-.35,.5-1.02,.71-1.57,.45-3.15-1.46-6.06,.49-6.09,.51l-.78,.53Z"/>
      <path class="cls-3" d="M117.22,120.35l-.64-.48c-1.95-1.45-4.01-.9-5.11-.41-.49,.22-1.06,.07-1.37-.36l-.02-.02c-.4-.56-.18-1.35,.46-1.63,1.59-.7,3.97-1.15,6.28-.01,.29,.15,.63,.17,.92,.04,1.34-.58,3.69-1.21,6.21-.04,.62,.29,.84,1.06,.46,1.62l-.02,.02c-.3,.43-.86,.6-1.34,.39-2.68-1.25-5.16,.42-5.18,.44l-.66,.46Z"/>
      <path class="cls-3" d="M91.08,116.05l-.46-.34c-1.39-1.04-2.87-.65-3.66-.3-.35,.16-.76,.05-.98-.26v-.02c-.3-.41-.14-.97,.32-1.17,1.14-.5,2.85-.83,4.5-.01,.21,.1,.45,.12,.66,.03,.96-.42,2.65-.87,4.46-.03,.45,.21,.6,.76,.33,1.16v.02c-.22,.31-.63,.43-.97,.27-1.92-.89-3.7,.3-3.72,.31l-.47,.33Z"/>
      <path class="cls-3" d="M89.1,102.2l-.4-.3c-1.22-.9-2.5-.56-3.19-.26-.31,.13-.66,.04-.86-.23h-.01c-.25-.37-.11-.85,.29-1.03,.99-.44,2.48-.72,3.93,0,.18,.09,.39,.11,.58,.02,.84-.36,2.31-.76,3.89-.02,.39,.18,.52,.66,.29,1.01v.02c-.2,.27-.55,.38-.85,.24-1.68-.78-3.22,.26-3.24,.27l-.41,.28Z"/>
      <path class="cls-3" d="M78.78,92.95l-.24-.18c-.74-.55-1.52-.34-1.94-.16-.19,.08-.4,.03-.52-.14h0c-.15-.22-.07-.52,.17-.63,.6-.27,1.51-.44,2.38,0,.11,.06,.24,.06,.35,.02,.51-.22,1.4-.46,2.36-.02,.24,.11,.32,.4,.17,.61h0c-.11,.17-.33,.24-.51,.16-1.02-.47-1.96,.16-1.97,.17l-.25,.17Z"/>
      <path class="cls-3" d="M53.38,43.22c-.05-.16-.09-.32-.16-.47l-4.14-8.69h0S33.4,1.16,33.4,1.16c-.74-1.55-2.95-1.55-3.69,0L.2,63.12c-.64,1.34,.35,2.89,1.84,2.89H29.83v-14.6s-6.38-6.33-6.38-6.33c-.39-.39-.39-1.01,0-1.4s1.02-.39,1.41,0l4.97,4.93v-13.59s-4.62-4.59-4.62-4.59c-.34-.34-.34-.89,0-1.23l.17-.17c.34-.34,.9-.34,1.24,0l3.21,3.19v-10.41c0-.71,.49-1.37,1.19-1.48,.9-.15,1.67,.54,1.67,1.4v10.4l2.94-2.93c.34-.34,.89-.34,1.23,0l.18,.18c.34,.34,.34,.88,0,1.22l-4.35,4.32v14.27l5.56-5.53c.39-.39,1.02-.39,1.41,0,.39,.39,.39,1.01,0,1.4l-6.97,6.92v14.01h28.61c1.3,0,2.15-1.34,1.6-2.5l-9.53-20.29Z"/>
      <path class="cls-3" d="M32.86,83.09h-3.02v-14.3c0-.83,.68-1.5,1.51-1.5s1.51,.67,1.51,1.5v14.3Z"/>
      <path class="cls-3" d="M172.32,52.31c-.05-.16-.09-.32-.16-.47l-4.14-8.69h0s-15.67-32.9-15.67-32.9c-.74-1.55-2.95-1.55-3.69,0l-29.52,61.96c-.64,1.34,.35,2.89,1.84,2.89h27.79v-14.6l-6.38-6.33c-.39-.39-.39-1.01,0-1.4,.39-.39,1.02-.39,1.41,0l4.97,4.93v-13.59l-4.62-4.59c-.34-.34-.34-.89,0-1.23l.17-.17c.34-.34,.9-.34,1.24,0l3.21,3.19v-10.41c0-.71,.49-1.37,1.19-1.48,.9-.15,1.67,.54,1.67,1.4v10.4l2.94-2.93c.34-.34,.89-.34,1.23,0l.18,.18c.34,.34,.34,.88,0,1.22l-4.35,4.32v14.27l5.56-5.53c.39-.39,1.02-.39,1.41,0,.39,.39,.39,1.01,0,1.4l-6.97,6.93v14.01h28.61c1.3,0,2.15-1.34,1.6-2.5l-9.53-20.29Z"/>
      <path class="cls-3" d="M151.8,92.18h-3.02v-14.3c0-.83,.68-1.5,1.51-1.5s1.51,.67,1.51,1.5v14.3Z"/>
    </g>
    <text class="cls-2" transform="translate(224.87 78.96)"><tspan class="cls-7" x="0" y="0">Bitá</tspan><tspan class="cls-5" x="138.38" y="0">c</tspan><tspan class="cls-7" x="176.77" y="0">o</tspan><tspan class="cls-8" x="224.26" y="0">r</tspan><tspan class="cls-7" x="252.46" y="0">a</tspan></text>
    <text class="cls-4" transform="translate(225.71 148.69)"><tspan class="cls-6" x="0" y="0">F</tspan><tspan class="cls-1" x="38.47" y="0">luvial</tspan></text>
  </g>
</svg>