<?xml version="1.0" encoding="UTF-8"?><svg id="Layer_2" xmlns="http://www.w3.org/2000/svg" viewBox="0 0 118.6 39"><defs><style>.cls-1{font-size:19.3px;}.cls-1,.cls-2{font-family:MyriadPro-Regular, 'Myriad Pro';}.cls-1,.cls-3{fill:#2c3e99;}.cls-4{letter-spacing:0em;}.cls-5{letter-spacing:0em;}.cls-2{fill:#231f20;font-size:16.8px;}.cls-6{letter-spacing:0em;}.cls-7{letter-spacing:0em;}.cls-8{letter-spacing:0em;}.cls-9{letter-spacing:0em;}</style></defs><g id="Layer_1-2"><g><g><path class="cls-3" d="M19.2,10.4c-2.5,0-2.4,1.7-2.4,1.7,0,.9,.5,1.2,.9,1.4,.3,.1,.7,.1,1,0,.4-.2,.9-.2,1.1-.2,.3,0,.6,.2,.7,.4,.4,.7-.5,1.5-.5,1.5-.4-.4-.8-.4-1.1-.3-.3,0-.4,.5,0,.6,.5,.3,.8,.9,.9,1.2,0,.3,.4,.3,.6,0,.3-.4,.2-1,.2-1,2.9-2.2,1-5.4-1.5-5.4h0Zm-.9,1.8c-.2,0-.3-.1-.3-.3s.1-.3,.3-.3,.3,.1,.3,.3-.1,.3-.3,.3Z"/><path class="cls-3" d="M21.7,29.4c-.4-.2-.8-.5-1.2-.8-1.4-1-4-3.1-4.7-5.3-.4-1.3,.2-2.4,1-3.4,.4-.4,0-1-.5-1H2.8c-1.1,0-2,1-1.8,2.1,2.1,11.9,10,16,15.8,17.7,3,.9,6.2-.5,7.4-3.3,1.4-3.3-1.6-5.5-2.5-6h0Z"/><path class="cls-3" d="M43.4,18.9H23.1c-.4,0-.7,.2-1,.5-2.5,3.2,.9,5,3.5,5.8,1.1,.3,2.2,.6,3.3,.7,8.2,.9,8.8,6.2,8,10.3,0,.4,.4,.7,.8,.5,4.9-4,7.6-11.3,7.9-15.5,0-1.2-.9-2.3-2.1-2.3h0Z"/><path class="cls-3" d="M33.2,34.6h-.2c-.6-.6-1.2-.4-1.5-.3-.1,0-.3,0-.4-.1h0c-.1-.2,0-.4,.1-.5,.5-.2,1.2-.3,1.8,0,0,0,.2,0,.3,0,.4-.2,1.1-.4,1.8,0,.2,0,.2,.3,.1,.5h0c0,.1-.3,.2-.4,.1-.8-.4-1.5,.1-1.5,.1h-.2Z"/><path class="cls-3" d="M27.5,31.3h-.2c-.5-.5-1.1-.4-1.4-.2-.1,0-.3,0-.4,0h0c-.1-.2,0-.4,.1-.4,.4-.2,1.1-.3,1.7,0,0,0,.2,0,.2,0,.4-.2,1-.3,1.7,0,.2,0,.2,.3,.1,.4h0c0,.1-.2,.2-.4,.1-.7-.3-1.4,.1-1.4,.1h-.2Z"/><path class="cls-3" d="M26.7,27.4h-.1c-.4-.4-.9-.3-1.2-.2-.1,0-.2,0-.3,0h0c0-.1,0-.3,.1-.4,.4-.2,.9-.3,1.4,0,0,0,.1,0,.2,0,.3-.1,.8-.3,1.4,0,.1,0,.2,.2,.1,.4h0c0,.1-.2,.1-.3,0-.6-.3-1.2,0-1.2,0h-.2Z"/><path class="cls-3" d="M20.7,26.4h-.1c-.3-.3-.7-.2-.8-.1,0,0-.2,0-.2,0h0c0,0,0-.2,0-.3,.3-.1,.6-.2,1,0,0,0,.1,0,.2,0,.2,0,.6-.2,1,0,.1,0,.1,.2,0,.3h0c0,0-.1,.1-.2,0-.4-.2-.8,0-.8,0h-.1Z"/><path class="cls-3" d="M20.3,23.3h0c-.3-.3-.6-.2-.7-.1,0,0-.2,0-.2,0h0c0,0,0-.2,0-.2,.2,0,.6-.2,.9,0,0,0,0,0,.1,0,.2,0,.5-.2,.9,0,0,0,.1,.2,0,.2h0c0,0-.1,0-.2,0-.4-.2-.7,0-.7,0h0Z"/><path class="cls-3" d="M17.9,21.1h0c-.2-.2-.3-.1-.4,0,0,0,0,0-.1,0h0c0,0,0-.1,0-.1,.1,0,.3,0,.5,0,0,0,0,0,0,0,.1,0,.3-.1,.5,0,0,0,0,0,0,.1h0s0,0-.1,0c-.2-.1-.4,0-.4,0h0Z"/><path class="cls-3" d="M12.1,9.8s0,0,0-.1l-.9-2h0L7.6,.3c-.2-.4-.7-.4-.8,0L0,14.4c-.1,.3,0,.7,.4,.7H6.8v-3.3l-1.5-1.4c0,0,0-.2,0-.3s.2,0,.3,0l1.1,1.1v-3.1l-1.1-1c0,0,0-.2,0-.3h0c0-.1,.2-.1,.3,0l.7,.7v-2.4c0-.2,.1-.3,.3-.3,.2,0,.4,.1,.4,.3v2.4l.7-.7c0,0,.2,0,.3,0h0c0,.1,0,.2,0,.3l-1,1v3.2l1.3-1.3c0,0,.2,0,.3,0,0,0,0,.2,0,.3l-1.6,1.6v3.2h6.5c.3,0,.5-.3,.4-.6l-2.2-4.6Z"/><path class="cls-3" d="M7.5,18.9h-.7v-3.3c0-.2,.2-.3,.3-.3s.3,.2,.3,.3v3.3Z"/><path class="cls-3" d="M39.2,11.9s0,0,0-.1l-.9-2h0l-3.6-7.5c-.2-.4-.7-.4-.8,0l-6.7,14.1c-.1,.3,0,.7,.4,.7h6.3v-3.3l-1.5-1.4c0,0,0-.2,0-.3,0,0,.2,0,.3,0l1.1,1.1v-3.1l-1.1-1c0,0,0-.2,0-.3h0c0-.1,.2-.1,.3,0l.7,.7v-2.4c0-.2,.1-.3,.3-.3,.2,0,.4,.1,.4,.3v2.4l.7-.7c0,0,.2,0,.3,0h0c0,.1,0,.2,0,.3l-1,1v3.2l1.3-1.3c0,0,.2,0,.3,0,0,0,0,.2,0,.3l-1.6,1.6v3.2h6.5c.3,0,.5-.3,.4-.6l-2.2-4.6Z"/><path class="cls-3" d="M34.5,21h-.7v-3.3c0-.2,.2-.3,.3-.3s.3,.2,.3,.3v3.3Z"/></g><text class="cls-1" transform="translate(51.2 18)"><tspan class="cls-6" x="0" y="0">Bitá</tspan><tspan class="cls-5" x="31.5" y="0">c</tspan><tspan class="cls-6" x="40.2" y="0">o</tspan><tspan class="cls-9" x="51" y="0">r</tspan><tspan class="cls-7" x="57.4" y="0">a</tspan></text><text class="cls-2" transform="translate(51.4 33.8)"><tspan class="cls-8" x="0" y="0">F</tspan><tspan class="cls-4" x="8.8" y="0">luvial</tspan></text></g></g></svg>