<?xml version="1.0" encoding="utf-8"?>
<!-- Generator: Adobe Illustrator 26.3.1, SVG Export Plug-In . SVG Version: 6.00 Build 0)  -->
<svg version="1.1" id="Layer_1" xmlns="http://www.w3.org/2000/svg" xmlns:xlink="http://www.w3.org/1999/xlink" x="0px" y="0px"
	 viewBox="0 0 349 320" style="enable-background:new 0 0 349 320;" xml:space="preserve">
<style type="text/css">
	.st0{fill:#FFFFFF;}
	.st1{fill:#3CB371;}
	.st2{fill:#FF0000;}
	.st3{fill:#8A2BE2;}
	.st4{fill:#FFD700;}
	.st5{fill:#231F20;}
</style>
<circle class="st0" cx="-1790.5" cy="-225" r="227.6"/>
<circle class="st0" cx="-1258.5" cy="-225" r="227.6"/>
<circle class="st0" cx="-726.5" cy="-225" r="227.6"/>
<g>
	<rect x="-1915.6" y="-385.5" class="st1" width="58.2" height="321.1"/>
	<rect x="-1819.6" y="-385.5" class="st1" width="58.2" height="321.1"/>
	<rect x="-1723.6" y="-385.5" class="st1" width="58.2" height="321.1"/>
</g>
<rect x="-1403.3" y="-369.7" class="st2" width="289.5" height="289.5"/>
<circle class="st3" cx="-726.5" cy="-225" r="174.6"/>
<circle class="st0" cx="-2322.5" cy="-225" r="227.6"/>
<polygon class="st4" points="-2322.5,-423.3 -2234,-270 -2145.5,-116.7 -2322.5,-116.7 -2499.5,-116.7 -2411,-270 "/>
<path class="st2" d="M-32-65h-325c-6.6,0-12-5.4-12-12v-296c0-6.6,5.4-12,12-12h325c6.6,0,12,5.4,12,12v296C-20-70.4-25.4-65-32-65z
	"/>
<path class="st1" d="M500-65H175c-6.6,0-12-5.4-12-12v-296c0-6.6,5.4-12,12-12h325c6.6,0,12,5.4,12,12v296C512-70.4,506.6-65,500-65
	z"/>
<path class="st4" d="M1025.4-64.9H699.6c-6.6,0-12-5.4-12-12v-296.5c0-6.6,5.4-12,12-12h325.8c6.6,0,12,5.4,12,12v296.5
	C1037.4-70.3,1032-64.9,1025.4-64.9z"/>
<path class="st3" d="M1564-64.9h-325c-6.6,0-12-5.4-12-12v-296.5c0-6.6,5.4-12,12-12h325c6.6,0,12,5.4,12,12v296.5
	C1576-70.3,1570.6-64.9,1564-64.9z"/>
<ellipse class="st5" cx="-194.5" cy="160" rx="174.5" ry="160"/>
<rect x="738" y="0" class="st5" width="349" height="320"/>
<g>
	<rect x="369" y="0" class="st5" width="81.2" height="320"/>
	<rect x="502.9" y="0" class="st5" width="81.2" height="320"/>
	<rect x="636.8" y="0" class="st5" width="81.2" height="320"/>
</g>
<polygon class="st5" points="174.5,0 261.8,160 349,320 174.5,320 0,320 87.2,160 "/>
</svg>
