<?xml version="1.0" encoding="utf-8"?>
<!-- Generator: Adobe Illustrator 26.3.1, SVG Export Plug-In . SVG Version: 6.00 Build 0)  -->
<svg version="1.1" id="Layer_1" xmlns="http://www.w3.org/2000/svg" xmlns:xlink="http://www.w3.org/1999/xlink" x="0px" y="0px"
	 viewBox="0 0 349.8 320.6" style="enable-background:new 0 0 349.8 320.6;" xml:space="preserve">
<style type="text/css">
	.st0{fill:#FFFFFF;}
	.st1{fill:#3CB371;}
	.st2{fill:#FF0000;}
	.st3{fill:#8A2BE2;}
	.st4{fill:#FFD700;}
</style>
<circle class="st0" cx="-2478.1" cy="160.4" r="227.6"/>
<circle class="st0" cx="-1946.1" cy="160.4" r="227.6"/>
<circle class="st0" cx="-1414.1" cy="160.4" r="227.6"/>
<g>
	<rect x="-2603.2" y="-0.2" class="st1" width="58.2" height="321.1"/>
	<rect x="-2507.2" y="-0.2" class="st1" width="58.2" height="321.1"/>
	<rect x="-2411.2" y="-0.2" class="st1" width="58.2" height="321.1"/>
</g>
<rect x="-2090.9" y="15.6" class="st2" width="289.5" height="289.5"/>
<circle class="st3" cx="-1414.1" cy="160.4" r="174.6"/>
<circle class="st0" cx="-3010.1" cy="160.4" r="227.6"/>
<polygon class="st4" points="-3010.1,-37.9 -2921.6,115.4 -2833.1,268.7 -3010.1,268.7 -3187.1,268.7 -3098.6,115.4 "/>
<path class="st2" d="M-638.1,416.4h-488c-6.6,0-12-5.4-12-12v-488c0-6.6,5.4-12,12-12h488c6.6,0,12,5.4,12,12v488
	C-626.1,411-631.5,416.4-638.1,416.4z"/>
<path class="st1" d="M-106.1,416.4h-488c-6.6,0-12-5.4-12-12v-488c0-6.6,5.4-12,12-12h488c6.6,0,12,5.4,12,12v488
	C-94.1,411-99.5,416.4-106.1,416.4z"/>
<path class="st4" d="M337.8,320.5H12c-6.6,0-12-5.4-12-12V12C0,5.4,5.4,0,12,0h325.8c6.6,0,12,5.4,12,12v296.5
	C349.8,315.1,344.4,320.5,337.8,320.5z"/>
<path class="st3" d="M957.9,416.4h-488c-6.6,0-12-5.4-12-12v-488c0-6.6,5.4-12,12-12h488c6.6,0,12,5.4,12,12v488
	C969.9,411,964.5,416.4,957.9,416.4z"/>
</svg>
