<?xml version="1.0" encoding="utf-8"?>
<!-- Generator: Adobe Illustrator 26.3.1, SVG Export Plug-In . SVG Version: 6.00 Build 0)  -->
<svg version="1.1" id="Layer_1" xmlns="http://www.w3.org/2000/svg" xmlns:xlink="http://www.w3.org/1999/xlink" x="0px" y="0px"
	 viewBox="0 0 349 320" style="enable-background:new 0 0 349 320;" xml:space="preserve">
<style type="text/css">
	.st0{fill:#FFFFFF;}
	.st1{fill:#3CB371;}
	.st2{fill:#FF0000;}
	.st3{fill:#8A2BE2;}
	.st4{fill:#FFD700;}
</style>
<circle class="st0" cx="-1953.5" cy="160" r="227.6"/>
<circle class="st0" cx="-1421.5" cy="160" r="227.6"/>
<circle class="st0" cx="-889.5" cy="160" r="227.6"/>
<g>
	<rect x="-2078.6" y="-0.6" class="st1" width="58.2" height="321.1"/>
	<rect x="-1982.6" y="-0.6" class="st1" width="58.2" height="321.1"/>
	<rect x="-1886.6" y="-0.6" class="st1" width="58.2" height="321.1"/>
</g>
<rect x="-1566.3" y="15.2" class="st2" width="289.5" height="289.5"/>
<circle class="st3" cx="-889.5" cy="160" r="174.6"/>
<circle class="st0" cx="-2485.5" cy="160" r="227.6"/>
<polygon class="st4" points="-2485.5,-38.3 -2397,115 -2308.5,268.3 -2485.5,268.3 -2662.5,268.3 -2574,115 "/>
<path class="st2" d="M-195,320h-325c-6.6,0-12-5.4-12-12V12c0-6.6,5.4-12,12-12h325c6.6,0,12,5.4,12,12v296
	C-183,314.6-188.4,320-195,320z"/>
<path class="st1" d="M337,320H12c-6.6,0-12-5.4-12-12V12C0,5.4,5.4,0,12,0h325c6.6,0,12,5.4,12,12v296C349,314.6,343.6,320,337,320z
	"/>
<path class="st4" d="M862.4,320.1H536.6c-6.6,0-12-5.4-12-12V11.6c0-6.6,5.4-12,12-12h325.8c6.6,0,12,5.4,12,12v296.5
	C874.4,314.7,869,320.1,862.4,320.1z"/>
<path class="st3" d="M1401,320.1h-325c-6.6,0-12-5.4-12-12V11.6c0-6.6,5.4-12,12-12h325c6.6,0,12,5.4,12,12v296.5
	C1413,314.7,1407.6,320.1,1401,320.1z"/>
</svg>
