<?xml version="1.0" encoding="utf-8"?>
<!-- Generator: Adobe Illustrator 26.3.1, SVG Export Plug-In . SVG Version: 6.00 Build 0)  -->
<svg version="1.1" id="Layer_1" xmlns="http://www.w3.org/2000/svg" xmlns:xlink="http://www.w3.org/1999/xlink" x="0px" y="0px"
	 viewBox="0 0 349 320.5" style="enable-background:new 0 0 349 320.5;" xml:space="preserve">
<style type="text/css">
	.st0{fill:#FFFFFF;}
	.st1{fill:#3CB371;}
	.st2{fill:#FF0000;}
	.st3{fill:#8A2BE2;}
	.st4{fill:#FFD700;}
</style>
<circle class="st0" cx="-3017.5" cy="160.4" r="227.6"/>
<circle class="st0" cx="-2485.5" cy="160.4" r="227.6"/>
<circle class="st0" cx="-1953.5" cy="160.4" r="227.6"/>
<g>
	<rect x="-3142.6" y="-0.2" class="st1" width="58.2" height="321.1"/>
	<rect x="-3046.6" y="-0.2" class="st1" width="58.2" height="321.1"/>
	<rect x="-2950.6" y="-0.2" class="st1" width="58.2" height="321.1"/>
</g>
<rect x="-2630.3" y="15.6" class="st2" width="289.5" height="289.5"/>
<circle class="st3" cx="-1953.5" cy="160.4" r="174.6"/>
<circle class="st0" cx="-3549.5" cy="160.4" r="227.6"/>
<polygon class="st4" points="-3549.5,-37.9 -3461,115.4 -3372.5,268.7 -3549.5,268.7 -3726.5,268.7 -3638,115.4 "/>
<path class="st2" d="M-1177.5,416.4h-488c-6.6,0-12-5.4-12-12v-488c0-6.6,5.4-12,12-12h488c6.6,0,12,5.4,12,12v488
	C-1165.5,411-1170.9,416.4-1177.5,416.4z"/>
<path class="st1" d="M-645.5,416.4h-488c-6.6,0-12-5.4-12-12v-488c0-6.6,5.4-12,12-12h488c6.6,0,12,5.4,12,12v488
	C-633.5,411-638.9,416.4-645.5,416.4z"/>
<path class="st4" d="M-201.6,320.5h-325.8c-6.6,0-12-5.4-12-12V12c0-6.6,5.4-12,12-12h325.8c6.6,0,12,5.4,12,12v296.5
	C-189.6,315.1-195,320.5-201.6,320.5z"/>
<path class="st3" d="M337,320.5H12c-6.6,0-12-5.4-12-12V12C0,5.4,5.4,0,12,0h325c6.6,0,12,5.4,12,12v296.5
	C349,315.1,343.6,320.5,337,320.5z"/>
</svg>
