<?xml version="1.0" encoding="utf-8"?>
<!-- Generator: Adobe Illustrator 26.3.1, SVG Export Plug-In . SVG Version: 6.00 Build 0)  -->
<svg version="1.1" id="Layer_1" xmlns="http://www.w3.org/2000/svg" xmlns:xlink="http://www.w3.org/1999/xlink" x="0px" y="0px"
	 viewBox="0 0 349 320" style="enable-background:new 0 0 349 320;" xml:space="preserve">
<style type="text/css">
	.st0{fill:#FFFFFF;}
	.st1{fill:#3CB371;}
	.st2{fill:#FF0000;}
	.st3{fill:#8A2BE2;}
	.st4{fill:#FFD700;}
	.st5{fill:#231F20;}
</style>
<circle class="st0" cx="-1421.5" cy="-225" r="227.6"/>
<circle class="st0" cx="-889.5" cy="-225" r="227.6"/>
<circle class="st0" cx="-357.5" cy="-225" r="227.6"/>
<g>
	<rect x="-1546.6" y="-385.5" class="st1" width="58.2" height="321.1"/>
	<rect x="-1450.6" y="-385.5" class="st1" width="58.2" height="321.1"/>
	<rect x="-1354.6" y="-385.5" class="st1" width="58.2" height="321.1"/>
</g>
<rect x="-1034.3" y="-369.7" class="st2" width="289.5" height="289.5"/>
<circle class="st3" cx="-357.5" cy="-225" r="174.6"/>
<circle class="st0" cx="-1953.5" cy="-225" r="227.6"/>
<polygon class="st4" points="-1953.5,-423.3 -1865,-270 -1776.5,-116.7 -1953.5,-116.7 -2130.5,-116.7 -2042,-270 "/>
<path class="st2" d="M337-65H12C5.4-65,0-70.4,0-77v-296c0-6.6,5.4-12,12-12h325c6.6,0,12,5.4,12,12v296C349-70.4,343.6-65,337-65z"
	/>
<path class="st1" d="M869-65H544c-6.6,0-12-5.4-12-12v-296c0-6.6,5.4-12,12-12h325c6.6,0,12,5.4,12,12v296C881-70.4,875.6-65,869-65
	z"/>
<path class="st4" d="M1394.4-64.9h-325.8c-6.6,0-12-5.4-12-12v-296.5c0-6.6,5.4-12,12-12h325.8c6.6,0,12,5.4,12,12v296.5
	C1406.4-70.3,1401-64.9,1394.4-64.9z"/>
<path class="st3" d="M1933-64.9h-325c-6.6,0-12-5.4-12-12v-296.5c0-6.6,5.4-12,12-12h325c6.6,0,12,5.4,12,12v296.5
	C1945-70.3,1939.6-64.9,1933-64.9z"/>
<ellipse class="st5" cx="174.5" cy="160" rx="174.5" ry="160"/>
<rect x="1107" y="0" class="st5" width="349" height="320"/>
<g>
	<rect x="738" y="0" class="st5" width="81.2" height="320"/>
	<rect x="871.9" y="0" class="st5" width="81.2" height="320"/>
	<rect x="1005.8" y="0" class="st5" width="81.2" height="320"/>
</g>
<polygon class="st5" points="543.5,0 630.8,160 718,320 543.5,320 369,320 456.2,160 "/>
</svg>
