<?xml version="1.0" encoding="utf-8"?>
<!-- Generator: Adobe Illustrator 26.3.1, SVG Export Plug-In . SVG Version: 6.00 Build 0)  -->
<svg version="1.1" id="Layer_1" xmlns="http://www.w3.org/2000/svg" xmlns:xlink="http://www.w3.org/1999/xlink" x="0px" y="0px"
	 viewBox="0 0 349 320" style="enable-background:new 0 0 349 320;" xml:space="preserve">
<style type="text/css">
	.st0{fill:#FFFFFF;}
	.st1{fill:#3CB371;}
	.st2{fill:#FF0000;}
	.st3{fill:#8A2BE2;}
	.st4{fill:#FFD700;}
	.st5{fill:#231F20;}
</style>
<circle class="st0" cx="-2159.5" cy="-225" r="227.6"/>
<circle class="st0" cx="-1627.5" cy="-225" r="227.6"/>
<circle class="st0" cx="-1095.5" cy="-225" r="227.6"/>
<g>
	<rect x="-2284.6" y="-385.5" class="st1" width="58.2" height="321.1"/>
	<rect x="-2188.6" y="-385.5" class="st1" width="58.2" height="321.1"/>
	<rect x="-2092.6" y="-385.5" class="st1" width="58.2" height="321.1"/>
</g>
<rect x="-1772.3" y="-369.7" class="st2" width="289.5" height="289.5"/>
<circle class="st3" cx="-1095.5" cy="-225" r="174.6"/>
<circle class="st0" cx="-2691.5" cy="-225" r="227.6"/>
<polygon class="st4" points="-2691.5,-423.3 -2603,-270 -2514.5,-116.7 -2691.5,-116.7 -2868.5,-116.7 -2780,-270 "/>
<path class="st2" d="M-401-65h-325c-6.6,0-12-5.4-12-12v-296c0-6.6,5.4-12,12-12h325c6.6,0,12,5.4,12,12v296
	C-389-70.4-394.4-65-401-65z"/>
<path class="st1" d="M131-65h-325c-6.6,0-12-5.4-12-12v-296c0-6.6,5.4-12,12-12h325c6.6,0,12,5.4,12,12v296
	C143-70.4,137.6-65,131-65z"/>
<path class="st4" d="M656.4-64.9H330.6c-6.6,0-12-5.4-12-12v-296.5c0-6.6,5.4-12,12-12h325.8c6.6,0,12,5.4,12,12v296.5
	C668.4-70.3,663-64.9,656.4-64.9z"/>
<path class="st3" d="M1195-64.9H870c-6.6,0-12-5.4-12-12v-296.5c0-6.6,5.4-12,12-12h325c6.6,0,12,5.4,12,12v296.5
	C1207-70.3,1201.6-64.9,1195-64.9z"/>
<ellipse class="st5" cx="-563.5" cy="160" rx="174.5" ry="160"/>
<rect x="369" y="0" class="st5" width="349" height="320"/>
<g>
	<rect y="0" class="st5" width="81.2" height="320"/>
	<rect x="133.9" y="0" class="st5" width="81.2" height="320"/>
	<rect x="267.8" y="0" class="st5" width="81.2" height="320"/>
</g>
<polygon class="st5" points="-194.5,0 -107.2,160 -20,320 -194.5,320 -369,320 -281.8,160 "/>
</svg>
