<?xml version="1.0" encoding="UTF-8"?><svg id="Layer_1" xmlns="http://www.w3.org/2000/svg" viewBox="0 0 115.5 38.8"><defs><style>.cls-1{fill:#2c3e99;font-size:19.2px;}.cls-1,.cls-2{font-family:MyriadPro-Regular, 'Myriad Pro';}.cls-3{fill:#010101;}.cls-2{fill:#231f20;font-size:16.7px;}.cls-4{letter-spacing:0em;}.cls-5{letter-spacing:0em;}.cls-6{letter-spacing:0em;}</style></defs><g><path class="cls-3" d="M19,10.3c-2.5,0-2.4,1.6-2.4,1.6,0,.9,.5,1.2,.9,1.4,.3,.1,.7,0,1,0,.4-.2,.9-.2,1.1-.2,.3,0,.6,.2,.7,.4,.3,.7-.5,1.4-.5,1.4-.4-.3-.8-.4-1.1-.3-.3,0-.3,.5,0,.6,.5,.3,.8,.9,.9,1.2,0,.3,.4,.3,.6,0,.3-.4,.2-1,.2-1,2.9-2.2,1-5.4-1.5-5.4h0Zm-.9,1.7c-.2,0-.3-.1-.3-.3s.1-.3,.3-.3,.3,.1,.3,.3-.1,.3-.3,.3Z"/><path class="cls-3" d="M21.4,29.2c-.4-.2-.8-.5-1.2-.8-1.4-1-4-3.1-4.6-5.3-.4-1.3,.2-2.4,1-3.3,.4-.4,0-1-.4-1H2.8c-1.1,0-2,1-1.8,2.1,2,11.8,9.8,15.9,15.6,17.6,2.9,.9,6.1-.5,7.3-3.3,1.4-3.3-1.6-5.4-2.5-6h0Z"/><path class="cls-3" d="M42.9,18.8H22.8c-.4,0-.7,.2-1,.5-2.5,3.2,.9,5,3.5,5.8,1.1,.3,2.1,.6,3.2,.7,8.1,.9,8.7,6.1,7.9,10.3,0,.4,.4,.7,.8,.5,4.8-4,7.5-11.3,7.8-15.4,0-1.2-.9-2.3-2.1-2.3h0Z"/><path class="cls-3" d="M32.8,34.4h-.2c-.6-.6-1.2-.4-1.5-.3-.1,0-.3,0-.4-.1h0c-.1-.2,0-.4,.1-.5,.5-.2,1.1-.3,1.8,0,0,0,.2,0,.3,0,.4-.2,1.1-.4,1.8,0,.2,0,.2,.3,.1,.5h0c0,.1-.2,.2-.4,.1-.8-.4-1.5,.1-1.5,.1h-.2Z"/><path class="cls-3" d="M27.1,31.1h-.2c-.5-.5-1.1-.4-1.3-.2-.1,0-.3,0-.4,0h0c-.1-.2,0-.4,.1-.4,.4-.2,1-.3,1.7,0,0,0,.2,0,.2,0,.4-.2,1-.3,1.6,0,.2,0,.2,.3,.1,.4h0c0,.1-.2,.2-.4,.1-.7-.3-1.4,.1-1.4,.1h-.2Z"/><path class="cls-3" d="M26.3,27.2h-.1c-.4-.4-.9-.3-1.1-.2-.1,0-.2,0-.3,0h0c0-.1,0-.3,.1-.4,.4-.2,.9-.3,1.4,0,0,0,.1,0,.2,0,.3-.1,.8-.3,1.4,0,.1,0,.2,.2,.1,.4h0c0,.1-.2,.1-.3,0-.6-.3-1.2,0-1.2,0h-.1Z"/><path class="cls-3" d="M20.5,26.2h-.1c-.3-.3-.6-.2-.8-.1,0,0-.2,0-.2,0h0c0,0,0-.2,0-.3,.3-.1,.6-.2,1,0,0,0,.1,0,.1,0,.2,0,.6-.2,1,0,0,0,.1,.2,0,.3h0c0,0-.1,.1-.2,0-.4-.2-.8,0-.8,0h-.1Z"/><path class="cls-3" d="M20,23.1h0c-.3-.3-.6-.2-.7-.1,0,0-.1,0-.2,0h0c0,0,0-.2,0-.2,.2,0,.6-.2,.9,0,0,0,0,0,.1,0,.2,0,.5-.2,.9,0,0,0,.1,.1,0,.2h0c0,0-.1,0-.2,0-.4-.2-.7,0-.7,0h0Z"/><path class="cls-3" d="M17.7,21h0c-.2-.2-.3-.1-.4,0,0,0,0,0-.1,0h0c0,0,0-.1,0-.1,.1,0,.3,0,.5,0,0,0,0,0,0,0,.1,0,.3-.1,.5,0,0,0,0,0,0,.1h0s0,0-.1,0c-.2-.1-.4,0-.4,0h0Z"/><path class="cls-3" d="M12,9.8s0,0,0-.1l-.9-2h0L7.5,.3c-.2-.3-.7-.3-.8,0L0,14.3c-.1,.3,0,.7,.4,.7H6.7v-3.3l-1.4-1.4c0,0,0-.2,0-.3s.2,0,.3,0l1.1,1.1v-3.1l-1-1c0,0,0-.2,0-.3h0c0-.1,.2-.1,.3,0l.7,.7v-2.4c0-.2,.1-.3,.3-.3,.2,0,.4,.1,.4,.3v2.4l.7-.7c0,0,.2,0,.3,0h0c0,.1,0,.2,0,.3l-1,1v3.2l1.2-1.2c0,0,.2,0,.3,0,0,0,0,.2,0,.3l-1.6,1.6v3.2h6.4c.3,0,.5-.3,.4-.6l-2.1-4.6Z"/><path class="cls-3" d="M7.4,18.8h-.7v-3.2c0-.2,.2-.3,.3-.3s.3,.2,.3,.3v3.2Z"/><path class="cls-3" d="M38.7,11.8s0,0,0-.1l-.9-2h0l-3.5-7.4c-.2-.3-.7-.3-.8,0l-6.6,14c-.1,.3,0,.7,.4,.7h6.2v-3.3l-1.4-1.4c0,0,0-.2,0-.3,0,0,.2,0,.3,0l1.1,1.1v-3.1l-1-1c0,0,0-.2,0-.3h0c0-.1,.2-.1,.3,0l.7,.7v-2.4c0-.2,.1-.3,.3-.3,.2,0,.4,.1,.4,.3v2.4l.7-.7c0,0,.2,0,.3,0h0c0,.1,0,.2,0,.3l-1,1v3.2l1.2-1.2c0,0,.2,0,.3,0,0,0,0,.2,0,.3l-1.6,1.6v3.2h6.4c.3,0,.5-.3,.4-.6l-2.1-4.6Z"/><path class="cls-3" d="M34.1,20.8h-.7v-3.2c0-.2,.2-.3,.3-.3s.3,.2,.3,.3v3.2Z"/></g><g><text class="cls-1" transform="translate(50.5 17.9)"><tspan x="0" y="0">Bitá</tspan><tspan class="cls-4" x="30.5" y="0">c</tspan><tspan x="39" y="0">o</tspan><tspan class="cls-5" x="49.6" y="0">r</tspan><tspan x="55.7" y="0">a</tspan></text><text class="cls-2" transform="translate(50.7 33.6)"><tspan class="cls-6" x="0" y="0">F</tspan><tspan x="7.9" y="0">luvial</tspan></text></g></svg>