<?xml version="1.0" encoding="utf-8"?>
<!-- Generator: Adobe Illustrator 26.3.1, SVG Export Plug-In . SVG Version: 6.00 Build 0)  -->
<svg version="1.1" id="Layer_1" xmlns="http://www.w3.org/2000/svg" xmlns:xlink="http://www.w3.org/1999/xlink" x="0px" y="0px"
	 viewBox="0 0 512 512" style="enable-background:new 0 0 512 512;" xml:space="preserve">
<path d="M377.6,0H134.4C113.3,0,96,17.3,96,38.4v435.2c0,21.1,17.3,38.4,38.4,38.4h243.2c21.1,0,38.4-17.3,38.4-38.4V38.4
	C416,17.3,398.7,0,377.6,0z M190.6,29.1c1.3-1.3,3-2.1,4.9-2.1h121c3.8,0,7,3.1,7,7c0,1.9-0.8,3.7-2.1,4.9c-1.3,1.3-3,2.1-4.9,2.1
	h-121c-3.8,0-7-3.2-7-7C188.5,32.1,189.3,30.3,190.6,29.1z M256,500c-11,0-20-9-20-20s9-20,20-20s20,9,20,20S267,500,256,500z
	 M384,448H128V64h256V448z"/>
<path d="M231.6,210.9l57.5,77c6.1,8.1,17.5,9.9,25.5,3.9l0,0c8-6,19.4-4.2,25.5,3.9l12.9,17.2c6.1,8.1,4.5,19.6-3.5,25.6l-29.1,21.7
	c-8,6-19.4,4.2-25.5-3.9c-47.3-45.8-124.4-154.7-129.6-173.7c-5.2-19.1,3.5-25.6,3.5-25.6l21.6-16.1c5.9-4.4,13.3-6.2,20.5-5.1h0
	c7.1,1.1,13.5,4.9,17.8,10.7l9.9,13.3c6.1,8.1,4.5,19.6-3.5,25.6l0,0C227.1,191.3,225.5,202.7,231.6,210.9z"/>
</svg>
