<?xml version="1.0" encoding="UTF-8"?>
<svg id="Layer_2" data-name="Layer 2" xmlns="http://www.w3.org/2000/svg" viewBox="0 0 334.3 102.89">
  <defs>
    <style>
      .cls-1 {
        fill: #fff;
      }

      .cls-2 {
        fill: #228dcb;
      }
    </style>
  </defs>
  <g id="Layer_1-2" data-name="Layer 1">
    <g>
      <path class="cls-1" d="M4.91,46.48c0-13.3,10.92-21,23.19-21,6.17,0,11.63,2.08,14.96,5.29l-6.17,8.49c-2.93-2-5.46-2.72-7.99-2.72-5.94,0-10.05,3.85-10.05,9.94s4.04,9.94,9.57,9.94c3.88,0,7.04-1.68,9.73-3.37l5.38,8.66c-4.91,4.09-11.24,5.77-16.46,5.77-12.5,0-22.16-7.69-22.16-21Z"/>
      <path class="cls-2" d="M82.15,30.36v6.84l-5.9,1.83c2.34,1.84,3.83,4.55,3.83,7.59,0,5.53-4.91,10.02-10.97,10.02-1,0-1.96-.13-2.88-.36l-8.08,2.08,.02,6.16c3.15,1.69,6.8,2.65,10.68,2.65,12,0,21.73-9.2,21.73-20.56,0-6.61-3.3-12.49-8.43-16.25Z"/>
      <path class="cls-1" d="M55.16,56.68l6.81-2.09c-2.6-1.86-4.27-4.75-4.27-8,0-5.62,4.99-10.18,11.14-10.18,1.44,0,2.81,.26,4.07,.71l6.71-2.04-.31-6.75c-3.18-1.68-6.84-2.64-10.74-2.64-12.2,0-22.09,9.35-22.09,20.89,0,6.76,3.4,12.77,8.66,16.58v-6.48Z"/>
      <g>
        <path class="cls-1" d="M98.38,26.44h11.08l.95,4.81h.32c3.17-3.05,7.44-5.77,13.21-5.77,8.78,0,12.58,6.41,12.58,16.35v24.68h-13.61v-22.92c0-4.49-1.11-6.41-4.59-6.41-2.53,0-4.27,1.12-6.33,3.05v26.29h-13.61V26.44Z"/>
        <path class="cls-1" d="M144.75,46.48c0-13.14,10.13-21,20.73-21,12.5,0,18.83,8.65,18.83,19.39,0,2.4-.4,4.81-.55,5.77h-28.73v-8.98h19.31l-1.9,2.4c0-5.29-2.06-8.17-6.49-8.17-5.22,0-8.07,3.37-8.07,10.58s3.64,10.58,10.92,10.58c3.17,0,6.01-.8,9.5-2.4l4.43,8.17c-4.75,3.05-10.92,4.65-15.83,4.65-12.5,0-22.16-7.69-22.16-21Z"/>
        <path class="cls-1" d="M193.18,46.48c0-13.3,10.92-21,23.19-21,6.17,0,11.63,2.08,14.96,5.29l-6.17,8.49c-2.93-2-5.46-2.72-7.99-2.72-5.94,0-10.05,3.85-10.05,9.94s4.04,9.94,9.57,9.94c3.88,0,7.04-1.68,9.73-3.37l5.38,8.66c-4.91,4.09-11.24,5.77-16.46,5.77-12.5,0-22.16-7.69-22.16-21Z"/>
        <path class="cls-1" d="M248.57,49.52v-12.34h-9.5v-10.26l10.13-.48,1.74-12.02h11.24v12.02h15.67v10.74h-15.67v12.1c0,5.69,2.61,7.45,7.68,7.45,2.69,0,5.06-.56,7.2-1.28l2.37,9.94c-3.48,.96-7.75,2.08-13.14,2.08-12.98,0-17.73-7.21-17.73-17.95Z"/>
      </g>
      <path class="cls-1" d="M292.16,56.68l6.81-2.09c-2.6-1.86-4.27-4.75-4.27-8,0-5.62,4.99-10.18,11.14-10.18,1.44,0,2.81,.26,4.07,.71l6.71-2.04-.31-6.75c-3.18-1.68-6.84-2.64-10.74-2.64-12.2,0-22.09,9.35-22.09,20.89,0,6.76,3.4,12.77,8.66,16.58v-6.48Z"/>
      <path class="cls-2" d="M334.3,68.08s-17.9,5.2-17.68-14.22l9.7,.13s-1.01,8.11,7.83,5.17l.15,8.92Z"/>
      <path class="cls-2" d="M315.15,52.87h11.29c.74-2.1,1.14-4.34,1.14-6.67,0-6.72-3.3-12.7-8.43-16.52v6.95l-5.9,1.86c2.34,1.87,3.83,4.63,3.83,7.72,0,5.62-4.91,10.18-10.97,10.18-1,0-1.96-.13-2.88-.37l-8.08,2.11,.02,6.26c3.14,1.71,6.77,2.7,10.64,2.7,3.35,0,6.51-.75,9.34-2.06v-12.16Z"/>
    </g>
  </g>
</svg>