<?xml version="1.0" encoding="UTF-8"?>
<svg id="Layer_2" data-name="Layer 2" xmlns="http://www.w3.org/2000/svg" viewBox="0 0 414.88 126.11">
  <defs>
    <style>
      .cls-1 {
        fill: #238ecb;
      }

      .cls-2 {
        fill: #22407d;
      }
    </style>
  </defs>
  <g id="Layer_1-2" data-name="Layer 1">
    <g>
      <path class="cls-2" d="M6.09,56.96c0-16.3,13.55-25.73,28.78-25.73,7.66,0,14.44,2.55,18.56,6.48l-7.66,10.41c-3.63-2.46-6.78-3.34-9.92-3.34-7.37,0-12.47,4.71-12.47,12.18s5.01,12.18,11.88,12.18c4.81,0,8.74-2.06,12.08-4.12l6.68,10.61c-6.09,5.01-13.95,7.07-20.43,7.07-15.52,0-27.5-9.43-27.5-25.73Z"/>
      <g>
        <path class="cls-1" d="M102.36,36.84v8.51l-7.45,2.28c2.95,2.29,4.83,5.67,4.83,9.46,0,6.89-6.19,12.48-13.83,12.48-1.26,0-2.47-.16-3.63-.45l-10.19,2.59,.02,7.68c3.98,2.1,8.57,3.31,13.47,3.31,15.14,0,27.42-11.47,27.42-25.61,0-8.24-4.17-15.56-10.64-20.25Z"/>
        <path class="cls-2" d="M68.93,69.47l8.45-2.56c-3.22-2.28-5.3-5.82-5.3-9.81,0-6.89,6.19-12.48,13.83-12.48,1.79,0,3.49,.32,5.06,.87l8.33-2.5-.38-8.28c-3.95-2.06-8.49-3.23-13.33-3.23-15.14,0-27.42,11.47-27.42,25.61,0,8.28,4.22,15.65,10.75,20.33l.02-7.95Z"/>
      </g>
      <g>
        <path class="cls-2" d="M122.1,32.41h13.75l1.18,5.89h.39c3.93-3.73,9.23-7.07,16.4-7.07,10.9,0,15.62,7.86,15.62,20.04v30.25h-16.89v-28.09c0-5.5-1.38-7.86-5.7-7.86-3.14,0-5.3,1.38-7.86,3.73v32.22h-16.89V32.41Z"/>
        <path class="cls-2" d="M179.65,56.96c0-16.11,12.57-25.73,25.73-25.73,15.52,0,23.38,10.61,23.38,23.77,0,2.95-.49,5.89-.69,7.07h-35.65v-11h23.97l-2.36,2.95c0-6.48-2.55-10.02-8.05-10.02-6.48,0-10.02,4.12-10.02,12.96s4.52,12.97,13.55,12.97c3.93,0,7.46-.98,11.79-2.95l5.5,10.02c-5.89,3.73-13.55,5.7-19.64,5.7-15.52,0-27.5-9.43-27.5-25.73Z"/>
        <path class="cls-2" d="M239.76,56.96c0-16.3,13.55-25.73,28.78-25.73,7.66,0,14.44,2.55,18.56,6.48l-7.66,10.41c-3.63-2.46-6.78-3.34-9.92-3.34-7.37,0-12.47,4.71-12.47,12.18s5.01,12.18,11.88,12.18c4.81,0,8.74-2.06,12.08-4.12l6.68,10.61c-6.09,5.01-13.95,7.07-20.43,7.07-15.52,0-27.5-9.43-27.5-25.73Z"/>
        <path class="cls-2" d="M308.51,60.7v-15.13h-11.79v-12.57l12.57-.59,2.16-14.73h13.95v14.73h19.45v13.16h-19.45v14.83c0,6.97,3.24,9.13,9.53,9.13,3.34,0,6.29-.69,8.94-1.57l2.95,12.18c-4.32,1.18-9.63,2.55-16.3,2.55-16.11,0-22-8.84-22-22Z"/>
      </g>
      <path class="cls-2" d="M362.97,69.47l8.45-2.56c-3.22-2.28-5.3-5.82-5.3-9.81,0-6.89,6.19-12.48,13.83-12.48,1.79,0,3.49,.32,5.06,.87l8.33-2.5-.38-8.28c-3.95-2.06-8.49-3.23-13.33-3.23-15.14,0-27.42,11.47-27.42,25.61,0,8.28,4.22,15.65,10.75,20.33l.02-7.95Z"/>
      <path class="cls-1" d="M414.88,84.01s-22.21,6.38-21.94-17.43l12.04,.15s-1.25,9.94,9.71,6.33l.18,10.94Z"/>
      <path class="cls-1" d="M391.44,65.27h14.15c.93-2.57,1.44-5.32,1.44-8.18,0-8.24-4.17-15.56-10.64-20.25v8.51l-7.45,2.28c2.95,2.29,4.83,5.67,4.83,9.46,0,6.89-6.19,12.48-13.83,12.48-1.26,0-2.47-.16-3.63-.45l-10.19,2.59,.02,7.68c3.98,2.1,8.57,3.31,13.47,3.31,4.24,0,8.24-.92,11.82-2.52v-14.91Z"/>
    </g>
  </g>
</svg>