<?xml version="1.0" encoding="UTF-8"?>
<svg id="Layer_2" data-name="Layer 2" xmlns="http://www.w3.org/2000/svg" viewBox="0 0 154.36 76.22">
  <defs>
    <style>
      .cls-1 {
        font-family: MyriadPro-Regular, 'Myriad Pro';
        font-size: 8.62px;
      }

      .cls-1, .cls-2 {
        fill: #228dcb;
      }

      .cls-3 {
        fill: #21407d;
      }

      .cls-4 {
        letter-spacing: 0em;
      }

      .cls-5 {
        letter-spacing: 0em;
      }

      .cls-6 {
        letter-spacing: -.03em;
      }

      .cls-7 {
        letter-spacing: 0em;
      }

      .cls-8 {
        letter-spacing: 0em;
      }
    </style>
  </defs>
  <g id="Layer_1-2" data-name="Layer 1">
    <g>
      <path class="cls-2" d="M100.7,20.25v-5.04h-3.93v-4.19l4.19-.2,.72-4.91h4.65v4.91h6.49v4.39h-6.49v4.95c0,2.33,1.08,3.05,3.18,3.05,1.11,0,2.1-.23,2.98-.52l.98,4.06c-1.44,.39-3.21,.85-5.44,.85-5.37,0-7.34-2.95-7.34-7.34Z"/>
      <path class="cls-2" d="M116.69,19c0-5.37,4.19-8.58,8.58-8.58,5.18,0,7.8,3.54,7.8,7.93,0,.98-.16,1.97-.23,2.36h-11.89v-3.67h7.99l-.79,.98c0-2.16-.85-3.34-2.69-3.34-2.16,0-3.34,1.38-3.34,4.32s1.51,4.32,4.52,4.32c1.31,0,2.49-.33,3.93-.98l1.83,3.34c-1.97,1.25-4.52,1.9-6.55,1.9-5.18,0-9.17-3.15-9.17-8.58Z"/>
      <path class="cls-2" d="M136.74,19c0-5.44,4.52-8.58,9.6-8.58,2.56,0,4.82,.85,6.19,2.16l-2.56,3.47c-1.21-.82-2.26-1.11-3.31-1.11-2.46,0-4.16,1.57-4.16,4.06s1.67,4.06,3.96,4.06c1.6,0,2.92-.69,4.03-1.38l2.23,3.54c-2.03,1.67-4.65,2.36-6.81,2.36-5.18,0-9.17-3.15-9.17-8.58Z"/>
    </g>
    <text class="cls-1" transform="translate(96.1 35.53)"><tspan class="cls-5" x="0" y="0">I</tspan><tspan class="cls-7" x="2.15" y="0">n</tspan><tspan class="cls-4" x="6.9" y="0">t</tspan><tspan x="9.7" y="0">e</tspan><tspan class="cls-4" x="14.02" y="0">g</tspan><tspan class="cls-8" x="18.78" y="0">r</tspan><tspan x="21.56" y="0">amos I</tspan><tspan class="cls-6" x="44.94" y="0">T</tspan><tspan x="48.99" y="0">O</tspan></text>
    <g>
      <path class="cls-3" d="M2.1,6.52h7.99c4.59,0,8.52,1.7,8.52,7.08s-4.06,7.47-8.52,7.47h-2.36v6.75H2.1V6.52Zm7.73,10.09c2.23,0,3.28-1.11,3.28-3.01s-1.18-2.62-3.28-2.62h-2.1v5.63h2.1Z"/>
      <path class="cls-3" d="M23.06,11.43h4.62l.43,3.47h.13c1.57-2.69,3.93-3.87,6.39-3.87,1.51,0,2.19,.26,3.11,.66l-1.11,4.72c-.98-.29-1.67-.46-2.85-.46-1.87,0-3.87,.98-5.08,3.73v8.12h-5.63V11.43Z"/>
    </g>
    <g>
      <path class="cls-3" d="M59.24,19.32c0-5.44,4.52-8.58,9.6-8.58,2.56,0,4.82,.85,6.19,2.16l-2.56,3.47c-1.21-.82-2.26-1.11-3.31-1.11-2.46,0-4.16,1.57-4.16,4.06s1.67,4.06,3.96,4.06c1.6,0,2.92-.69,4.03-1.38l2.23,3.54c-2.03,1.67-4.65,2.36-6.81,2.36-5.18,0-9.17-3.15-9.17-8.58Z"/>
      <path class="cls-3" d="M79.06,33.34l.98-4.26c.43,.13,.82,.2,1.18,.2,1.74,0,2.62-.66,3.05-1.64l.26-.72-6.88-15.79h5.57l2.29,6.29c.56,1.57,1.02,3.21,1.47,4.98h.13c.39-1.67,.92-3.34,1.41-4.98l1.97-6.29h5.31l-6.16,16.12c-1.74,4.42-3.67,6.42-7.96,6.42-1.02,0-1.87-.13-2.62-.33Z"/>
    </g>
    <g>
      <path class="cls-2" d="M54.91,12.63v2.84l-2.48,.76c.98,.76,1.61,1.89,1.61,3.16,0,2.3-2.07,4.16-4.61,4.16-.42,0-.82-.05-1.21-.15l-3.4,.86v2.56c1.34,.7,2.87,1.1,4.5,1.1,5.05,0,9.15-3.82,9.15-8.54,0-2.75-1.39-5.19-3.55-6.75Z"/>
      <path class="cls-3" d="M43.75,23.51l2.82-.86c-1.08-.76-1.77-1.94-1.77-3.27,0-2.3,2.07-4.16,4.61-4.16,.6,0,1.16,.11,1.69,.29l2.78-.83-.13-2.76c-1.32-.69-2.83-1.08-4.45-1.08-5.05,0-9.15,3.82-9.15,8.54,0,2.76,1.41,5.22,3.59,6.78v-2.65Z"/>
    </g>
    <g>
      <path class="cls-3" d="M40.28,53.16c0-5.44,4.52-8.58,9.6-8.58,2.56,0,4.82,.85,6.19,2.16l-2.56,3.47c-1.21-.82-2.26-1.11-3.31-1.11-2.46,0-4.16,1.57-4.16,4.06s1.67,4.06,3.96,4.06c1.6,0,2.92-.69,4.03-1.38l2.23,3.54c-2.03,1.67-4.65,2.36-6.81,2.36-5.18,0-9.17-3.15-9.17-8.58Z"/>
      <path class="cls-3" d="M61.32,44.97h4.62l.43,3.47h.13c1.57-2.69,3.93-3.87,6.39-3.87,1.51,0,2.19,.26,3.11,.66l-1.11,4.72c-.98-.29-1.67-.46-2.85-.46-1.87,0-3.87,.98-5.08,3.73v8.12h-5.63v-16.38Z"/>
      <path class="cls-3" d="M78.42,44.97h4.19l.39,1.96h.13c.52-1.24,1.57-2.36,3.47-2.36,1.34,0,2.39,.92,2.75,2.62,.46-1.38,1.67-2.62,3.54-2.62,2.36,0,3.67,2.1,3.67,5.37v11.4h-5.31v-11.01c0-.69-.13-.98-.56-.98s-.79,.39-1.08,1.25v10.75h-4.26v-11.01c0-.69-.23-.98-.66-.98-.39,0-.69,.39-.98,1.25v10.75h-5.31v-16.38Z"/>
    </g>
  </g>
</svg>