<?xml version="1.0" encoding="UTF-8"?><svg id="Layer_2" xmlns="http://www.w3.org/2000/svg" viewBox="0 0 670 670"><defs><style>.cls-1{fill:#fff;}.cls-2{fill:#00a651;}.cls-3{fill:#262262;}</style></defs><g id="Layer_1-2"><circle class="cls-3" cx="335" cy="335" r="335"/><circle class="cls-1" cx="335" cy="335" r="275"/><circle class="cls-2" cx="175.1" cy="448.4" r="46.2"/><circle class="cls-2" cx="438.6" cy="448.4" r="46.2"/><path class="cls-2" d="M371.4,259.2v40.2s172.7-59.5,172.7-83.8-178.7-101.2-216.9-105.3c-.4,0-.8,0-1.2-.1-6.7-1.5-39.2-8.2-50.6,.3-11.7,8.7-1.9,247.4-.2,285.9-15.5,8.1-26.9,21.8-30.7,38-1.6,4.7-2.4,9.6-2.4,14.8,0,20.2,13.1,37.8,32.6,47.2,9.7,5.2,21,8.2,33,8.2,35.7,0,64.6-26,64.6-58s-18.9-47.8-45-55.3V151.5c9.1-7.6,144.2,43.7,143.1,63.7-1.1,20-98.8,44-98.8,44Z"/><polygon class="cls-2" points="508.1 225.9 317 120.3 317 331.5 508.1 225.9"/></g></svg>