<?xml version="1.0" encoding="UTF-8"?><svg id="Layer_2" xmlns="http://www.w3.org/2000/svg" xmlns:xlink="http://www.w3.org/1999/xlink" viewBox="0 0 308.9 246.5"><defs><style>.cls-1{letter-spacing:0em;}.cls-2{fill:none;stroke:#2e3192;stroke-width:3px;}.cls-2,.cls-3{stroke-miterlimit:10;}.cls-4{letter-spacing:0em;}.cls-5{letter-spacing:0em;}.cls-6{letter-spacing:0em;}.cls-7,.cls-8{fill:#2c3e99;}.cls-8{font-size:40.3px;}.cls-8,.cls-9,.cls-10{font-family:MyriadPro-Regular, 'Myriad Pro';}.cls-9{font-size:32.1px;}.cls-9,.cls-10{fill:#231f20;}.cls-10{font-size:35.1px;}.cls-11{letter-spacing:0em;}.cls-12{letter-spacing:0em;}.cls-13{letter-spacing:0em;}.cls-3{fill:#5055a5;filter:url(#drop-shadow-1);opacity:.2;stroke:#2b3990;}.cls-14{letter-spacing:0em;}</style><filter id="drop-shadow-1" filterUnits="userSpaceOnUse"><feOffset dx="1" dy="0"/><feGaussianBlur result="blur" stdDeviation="4"/><feFlood flood-color="#3953a4" flood-opacity=".7"/><feComposite in2="blur" operator="in"/><feComposite in="SourceGraphic"/></filter></defs><g id="Layer_1-2"><rect class="cls-3" x="11.6" y="12.6" width="283.6" height="221.3" rx="21" ry="21"/><g><g><path class="cls-7" d="M70.9,46.4c-5.3,0-5,3.5-5,3.5,.2,1.8,1.1,2.6,2,2.9,.7,.2,1.4,.2,2.1,0,.9-.3,1.8-.4,2.4-.4,.6,0,1.3,.3,1.6,.9,.7,1.4-1,3-1,3-.9-.7-1.6-.8-2.2-.6-.6,.2-.7,1-.2,1.4,1,.6,1.6,1.8,1.9,2.6,.2,.5,.9,.6,1.3,.2,.6-.8,.4-2.1,.4-2.1,6.1-4.6,2-11.3-3.2-11.3h0Zm-1.9,3.7c-.4,0-.7-.3-.7-.7s.3-.7,.7-.7,.7,.3,.7,.7-.3,.7-.7,.7Z"/><path class="cls-7" d="M76.1,86c-.8-.5-1.7-1-2.5-1.6-3-2.1-8.4-6.4-9.8-11.1-.8-2.7,.4-5.1,2.1-7,.8-.8,.2-2.2-1-2.2h-28.3c-2.4,0-4.2,2.1-3.8,4.4,4.3,24.8,20.8,33.4,33,37,6.2,1.8,13-1,15.5-6.9,3-7-3.3-11.4-5.3-12.6h0Z"/><path class="cls-7" d="M121.5,64.1h-42.5c-.8,0-1.5,.4-2,1-5.2,6.8,1.9,10.5,7.4,12.2,2.2,.7,4.5,1.2,6.8,1.4,17.1,1.9,18.4,12.9,16.6,21.6-.2,.9,.9,1.6,1.6,1,10.2-8.4,15.8-23.6,16.5-32.3,.2-2.6-1.8-4.8-4.4-4.8h0Z"/><path class="cls-7" d="M100.1,96.9l-.4-.3c-1.2-.9-2.4-.5-3.1-.3-.3,.1-.6,0-.8-.2h0c-.2-.4-.1-.8,.3-1,1-.4,2.4-.7,3.8,0,.2,0,.4,.1,.6,0,.8-.4,2.3-.7,3.8,0,.4,.2,.5,.6,.3,1h0c-.2,.3-.5,.4-.8,.2-1.6-.8-3.1,.3-3.2,.3l-.4,.3Z"/><path class="cls-7" d="M88.1,90l-.4-.3c-1.1-.8-2.2-.5-2.8-.2-.3,.1-.6,0-.8-.2h0c-.2-.3,0-.8,.3-.9,.9-.4,2.2-.6,3.5,0,.2,0,.3,0,.5,0,.7-.3,2.1-.7,3.5,0,.3,.2,.5,.6,.3,.9h0c-.2,.3-.5,.4-.7,.2-1.5-.7-2.9,.2-2.9,.2l-.4,.3Z"/><path class="cls-7" d="M86.5,81.8l-.3-.2c-.9-.7-1.9-.4-2.4-.2-.2,.1-.5,0-.6-.2h0c-.2-.3,0-.6,.2-.8,.8-.3,1.9-.5,3,0,.1,0,.3,0,.4,0,.6-.3,1.8-.6,2.9,0,.3,.1,.4,.5,.2,.8h0c-.1,.2-.4,.3-.6,.2-1.3-.6-2.4,.2-2.5,.2l-.3,.2Z"/><path class="cls-7" d="M74.1,79.8l-.2-.2c-.7-.5-1.4-.3-1.7-.1-.2,0-.4,0-.5-.1h0c-.1-.2,0-.5,.2-.6,.5-.2,1.4-.4,2.1,0,0,0,.2,0,.3,0,.5-.2,1.3-.4,2.1,0,.2,0,.3,.4,.2,.5h0c-.1,.2-.3,.2-.5,.1-.9-.4-1.8,.1-1.8,.1l-.2,.2Z"/><path class="cls-7" d="M73.1,73.2h-.2c-.6-.6-1.2-.4-1.5-.3-.1,0-.3,0-.4-.1h0c-.1-.2,0-.4,.1-.5,.5-.2,1.2-.3,1.9,0,0,0,.2,0,.3,0,.4-.2,1.1-.4,1.8,0,.2,0,.2,.3,.1,.5h0c0,.1-.3,.2-.4,.1-.8-.4-1.5,.1-1.5,.1h-.2Z"/><path class="cls-7" d="M68.2,68.8h-.1c-.4-.3-.7-.2-.9-.2,0,0-.2,0-.2,0h0c0-.1,0-.2,0-.3,.3-.1,.7-.2,1.1,0,0,0,.1,0,.2,0,.2-.1,.7-.2,1.1,0,.1,0,.2,.2,0,.3h0c0,0-.2,.1-.2,0-.5-.2-.9,0-.9,0h-.1Z"/><path class="cls-7" d="M56.2,45.2c0,0,0-.2,0-.2l-2-4.1h0l-7.4-15.6c-.3-.7-1.4-.7-1.7,0l-14,29.4c-.3,.6,.2,1.4,.9,1.4h13.2v-6.9l-3-3c-.2-.2-.2-.5,0-.7s.5-.2,.7,0l2.4,2.3v-6.5l-2.2-2.2c-.2-.2-.2-.4,0-.6h0c.2-.2,.4-.2,.6,0l1.5,1.5v-4.9c0-.3,.2-.6,.6-.7,.4,0,.8,.3,.8,.7v4.9l1.4-1.4c.2-.2,.4-.2,.6,0h0c.2,.2,.2,.5,0,.7l-2.1,2.1v6.8l2.6-2.6c.2-.2,.5-.2,.7,0,.2,.2,.2,.5,0,.7l-3.3,3.3v6.6h13.6c.6,0,1-.6,.8-1.2l-4.5-9.6Z"/><path class="cls-7" d="M46.4,64.1h-1.4v-6.8c0-.4,.3-.7,.7-.7s.7,.3,.7,.7v6.8Z"/><path class="cls-7" d="M112.6,49.5c0,0,0-.2,0-.2l-2-4.1h0l-7.4-15.6c-.3-.7-1.4-.7-1.7,0l-14,29.4c-.3,.6,.2,1.4,.9,1.4h13.2v-6.9l-3-3c-.2-.2-.2-.5,0-.7,.2-.2,.5-.2,.7,0l2.4,2.3v-6.5l-2.2-2.2c-.2-.2-.2-.4,0-.6h0c.2-.2,.4-.2,.6,0l1.5,1.5v-4.9c0-.3,.2-.6,.6-.7,.4,0,.8,.3,.8,.7v4.9l1.4-1.4c.2-.2,.4-.2,.6,0h0c.2,.2,.2,.5,0,.7l-2.1,2.1v6.8l2.6-2.6c.2-.2,.5-.2,.7,0,.2,.2,.2,.5,0,.7l-3.3,3.3v6.6h13.6c.6,0,1-.6,.8-1.2l-4.5-9.6Z"/><path class="cls-7" d="M102.9,68.4h-1.4v-6.8c0-.4,.3-.7,.7-.7s.7,.3,.7,.7v6.8Z"/></g><text class="cls-8" transform="translate(137.6 62.2)"><tspan class="cls-13" x="0" y="0">Bitá</tspan><tspan class="cls-6" x="65.7" y="0">c</tspan><tspan class="cls-11" x="83.9" y="0">o</tspan><tspan class="cls-14" x="106.4" y="0">r</tspan><tspan class="cls-11" x="119.8" y="0">a</tspan></text><text class="cls-10" transform="translate(138 95.3)"><tspan class="cls-12" x="0" y="0">F</tspan><tspan class="cls-1" x="18.3" y="0">luvial</tspan></text></g><text class="cls-9" transform="translate(66.5 172.1)"><tspan class="cls-5"><tspan x="0" y="0">Sin imagen </tspan></tspan><tspan class="cls-4"><tspan x="8.3" y="38.5">disponible</tspan></tspan></text><line class="cls-2" x1="12.2" y1="134.4" x2="295.2" y2="133.2"/></g></svg>